<svg width="16" height="20" viewBox="0 0 16 20" fill="none" xmlns="http://www.w3.org/2000/svg">
<g clip-path="url(#clip0)">
<path d="M15.6968 6.06751L5.67403 0.0577406C5.61361 0.0215361 5.54467 0.00201651 5.47424 0.00117296C5.40382 0.000329408 5.33443 0.018192 5.27316 0.0529389C5.21189 0.0876857 5.16092 0.138073 5.12546 0.198962C5.09 0.259851 5.07131 0.329063 5.0713 0.399537V3.80149L3.10852 2.62493C3.04812 2.58859 2.97915 2.56897 2.90868 2.56806C2.83821 2.56716 2.76876 2.58501 2.70745 2.61978C2.64613 2.65455 2.59515 2.70499 2.55972 2.76595C2.52428 2.82692 2.50567 2.8962 2.50579 2.96672V6.27297L0.602732 5.13196C0.542307 5.09575 0.473367 5.07623 0.402944 5.07539C0.33252 5.07455 0.263133 5.09241 0.20186 5.12716C0.140586 5.1619 0.0896195 5.21229 0.0541576 5.27318C0.0186958 5.33407 7.85093e-06 5.40328 0 5.47376V13.5948C9.19231e-05 13.6639 0.0181366 13.7317 0.0523594 13.7916C0.0865822 13.8515 0.135804 13.9015 0.195185 13.9366L10.2164 19.9445C10.2768 19.9808 10.3457 20.0004 10.4162 20.0013C10.4867 20.0022 10.5561 19.9844 10.6175 19.9496C10.6788 19.9148 10.7297 19.8644 10.7652 19.8034C10.8006 19.7425 10.8192 19.6732 10.8191 19.6027V16.296L12.7222 17.437C12.7826 17.4734 12.8515 17.493 12.922 17.4939C12.9925 17.4948 13.0619 17.477 13.1232 17.4422C13.1846 17.4074 13.2355 17.357 13.271 17.296C13.3064 17.235 13.325 17.1658 13.3249 17.0952V13.6933L15.2873 14.8698C15.3477 14.9061 15.4166 14.9257 15.4871 14.9266C15.5575 14.9276 15.627 14.9097 15.6883 14.875C15.7496 14.8403 15.8006 14.79 15.8361 14.7291C15.8716 14.6682 15.8904 14.5989 15.8904 14.5284V6.4093C15.8905 6.34043 15.8727 6.27272 15.8387 6.2128C15.8048 6.15289 15.7559 6.10282 15.6968 6.06751ZM10.0231 18.8995L0.796355 13.3671V6.17727L10.0231 11.7093V18.8995ZM12.5285 16.3921L10.8191 15.3671V11.4855C10.8191 11.4167 10.8013 11.349 10.7674 11.2892C10.7335 11.2293 10.6848 11.1792 10.6259 11.1437L3.30214 6.75071V3.66985L12.5285 9.20188V16.3921ZM15.0941 13.8249L13.3249 12.7644V8.97532C13.3249 8.90656 13.3071 8.83897 13.2732 8.77913C13.2394 8.7193 13.1906 8.66927 13.1317 8.63391L5.86766 4.27883V1.10266L15.0941 6.63508V13.8249Z" fill="black"/>
</g>
<defs>
<clipPath id="clip0">
<rect width="15.8904" height="20" fill="white"/>
</clipPath>
</defs>
</svg>
