<svg width="24" height="24" viewBox="0 0 24 24" fill="none" xmlns="http://www.w3.org/2000/svg">
<path d="M20.2663 7.67407L9.24137 1.0634C9.1749 1.02357 9.09907 1.0021 9.02161 1.00118C8.94414 1.00025 8.86782 1.0199 8.80042 1.05812C8.73302 1.09634 8.67695 1.15176 8.63794 1.21874C8.59894 1.28572 8.57838 1.36185 8.57837 1.43937V5.18148L6.41933 3.88728C6.35289 3.84731 6.27703 3.82572 6.19951 3.82473C6.122 3.82373 6.04561 3.84336 5.97816 3.88161C5.91072 3.91986 5.85464 3.97535 5.81566 4.0424C5.77668 4.10946 5.75621 4.18567 5.75634 4.26325V7.90009L3.663 6.64498C3.59653 6.60516 3.5207 6.58369 3.44323 6.58276C3.36577 6.58183 3.28944 6.60148 3.22204 6.6397C3.15464 6.67792 3.09858 6.73335 3.05957 6.80032C3.02057 6.8673 3.00001 6.94343 3 7.02095V15.9541C3.0001 16.03 3.01995 16.1046 3.05759 16.1705C3.09524 16.2364 3.14938 16.2914 3.2147 16.33L14.2379 22.9386C14.3043 22.9785 14.3802 23.0001 14.4577 23.0011C14.5352 23.0021 14.6116 22.9825 14.6791 22.9442C14.7465 22.906 14.8026 22.8505 14.8416 22.7834C14.8806 22.7164 14.901 22.6402 14.9009 22.5626V18.9253L16.9942 20.1804C17.0607 20.2204 17.1365 20.242 17.2141 20.243C17.2916 20.244 17.368 20.2243 17.4354 20.1861C17.5029 20.1478 17.5589 20.0924 17.5979 20.0253C17.6369 19.9582 17.6574 19.882 17.6572 19.8045V16.0623L19.8158 17.3566C19.8823 17.3965 19.9581 17.418 20.0356 17.419C20.1131 17.42 20.1895 17.4004 20.2569 17.3623C20.3244 17.3241 20.3805 17.2687 20.4196 17.2017C20.4586 17.1347 20.4792 17.0586 20.4793 16.981V8.05005C20.4793 7.97429 20.4598 7.89981 20.4224 7.8339C20.3851 7.76799 20.3313 7.71292 20.2663 7.67407ZM14.0253 21.7892L3.87598 15.7036V7.79481L14.0253 13.88V21.7892ZM16.7813 19.031L14.9009 17.9035V13.6338C14.9009 13.5581 14.8813 13.4837 14.844 13.4178C14.8068 13.352 14.7531 13.2968 14.6883 13.2578L6.63232 8.42559V5.03668L16.7813 11.1218V19.031ZM19.6033 16.2071L17.6572 15.0406V10.8726C17.6572 10.797 17.6377 10.7226 17.6004 10.6568C17.5632 10.591 17.5095 10.536 17.4447 10.4971L9.45435 5.70655V2.2128L19.6033 8.2984V16.2071Z" fill="black"/>
</svg>
