<svg width="116" height="146" viewBox="0 0 116 146" fill="none" xmlns="http://www.w3.org/2000/svg">
<g clip-path="url(#clip0)">
<path d="M114.587 44.2856L41.4204 0.414297C40.9793 0.150003 40.4761 0.00751076 39.962 0.00135283C39.4479 -0.0048051 38.9414 0.125592 38.4941 0.379244C38.0468 0.632896 37.6747 1.00073 37.4158 1.44522C37.157 1.88971 37.0205 2.39495 37.0205 2.90941V27.7437L22.6922 19.1548C22.2512 18.8895 21.7478 18.7463 21.2334 18.7397C20.7189 18.7331 20.212 18.8633 19.7644 19.1172C19.3168 19.371 18.9446 19.7392 18.6859 20.1843C18.4273 20.6293 18.2914 21.1351 18.2922 21.6499V45.7855L4.39994 37.4561C3.95884 37.1918 3.45558 37.0493 2.94149 37.0431C2.4274 37.037 1.92087 37.1674 1.47358 37.421C1.02628 37.6747 0.654223 38.0425 0.395351 38.487C0.136479 38.9315 5.73118e-05 39.4367 0 39.9512V99.2352C0.000671038 99.7391 0.132397 100.234 0.382223 100.672C0.63205 101.109 0.991372 101.474 1.42485 101.73L74.5796 145.587C75.0205 145.853 75.524 145.996 76.0384 146.002C76.5528 146.009 77.0598 145.879 77.5074 145.625C77.955 145.371 78.3272 145.003 78.5858 144.558C78.8445 144.113 78.9803 143.607 78.9795 143.092V118.954L92.8718 127.283C93.3128 127.548 93.8162 127.692 94.3306 127.698C94.8451 127.705 95.352 127.575 95.7996 127.321C96.2472 127.067 96.6194 126.699 96.8781 126.254C97.1367 125.809 97.2726 125.303 97.2718 124.788V99.9538L111.597 108.543C112.038 108.808 112.541 108.951 113.056 108.957C113.57 108.964 114.077 108.834 114.524 108.581C114.972 108.327 115.345 107.959 115.604 107.515C115.863 107.07 116 106.565 116 106.05V46.7807C116.001 46.2779 115.871 45.7836 115.623 45.3463C115.375 44.9089 115.018 44.5434 114.587 44.2856ZM73.169 137.959L5.81339 97.5727V45.0869L73.169 85.4707V137.959ZM91.4584 119.655L78.9795 112.173V83.8368C78.9792 83.3345 78.8492 82.8408 78.602 82.4036C78.3549 81.9665 77.999 81.6006 77.5689 81.3416L24.1056 49.273V26.7827L91.4584 67.1665V119.655ZM110.187 100.915L97.2718 93.1728V65.5126C97.2718 65.0107 97.1419 64.5173 96.8947 64.0805C96.6474 63.6437 96.2914 63.2785 95.8612 63.0203L42.8339 31.2283V8.04223L110.187 48.4289V100.915Z" fill="black"/>
</g>
<defs>
<clipPath id="clip0">
<rect width="116" height="146" fill="white"/>
</clipPath>
</defs>
</svg>
