<svg width="179" height="115" viewBox="0 0 179 115" fill="none" xmlns="http://www.w3.org/2000/svg">
<g clip-path="url(#clip0)">
<path d="M23.8312 0.100642C21.1805 0.210319 20.3579 0.319996 19.0599 0.703866C13.7402 2.31246 9.3711 5.09095 6.26337 8.8748C3.74062 11.964 2.00394 14.8888 0.797409 18.106L0.0478971 20.0801L0.0113355 55.1951C-0.0252261 92.1745 -0.00694534 93.1982 0.779129 96.3057C1.69317 99.8154 4.87402 104.842 8.07316 107.785C12.6616 112.008 17.5975 114.22 23.6484 114.768C27.2314 115.079 151.742 115.079 155.27 114.768C161.997 114.165 167.262 111.587 172.107 106.542C174.757 103.782 176.476 100.967 178.139 96.7261L178.871 94.8799L178.962 61.794C179.035 40.608 178.999 27.1543 178.889 24.4124C178.706 20.2995 178.669 20.0436 178.121 18.4715C177.225 15.9124 175.342 12.2382 174.044 10.52C171.412 7.04685 167.591 3.99418 163.478 2.03827C160.791 0.776984 159.822 0.466232 157.775 0.246878C155.818 0.0275241 28.9498 -0.100432 23.8312 0.100642ZM154.722 7.55868C157.921 7.70492 158.195 7.74148 159.987 8.36298C162.263 9.14359 164.35 10.3951 166.111 12.0361C167.872 13.677 169.267 15.6705 170.205 17.8866C171.357 20.6285 171.503 21.6705 171.723 28.4339C171.979 36.3672 171.979 76.6735 171.723 85.1735C171.522 92.339 171.394 93.5089 170.754 95.4283C169.748 98.353 168.323 100.583 166.092 102.667C164.289 104.361 162.145 105.651 159.804 106.451C158.049 107.072 157.72 107.109 154.813 107.255C149.384 107.493 58.4002 107.639 39.3699 107.438L21.7289 107.237L20.175 106.762C17.4512 105.939 14.4897 104.257 12.5337 102.393C11.4551 101.406 9.71843 98.9562 8.9872 97.439C8.51723 96.3723 8.12619 95.2726 7.81723 94.1487C7.37849 92.3756 7.36021 92.0466 7.15912 83.3638C6.93975 72.3595 7.086 26.1307 7.36021 23.2973C7.67465 20.0264 8.89507 16.908 10.8843 14.2924C12.8736 11.6768 15.5529 9.66774 18.6212 8.49094C20.7235 7.66836 22.2591 7.59524 42.112 7.41244C62.6413 7.22965 149.877 7.35761 154.722 7.55868Z" fill="black"/>
<path d="M48.8755 31.9069C43.1719 32.5832 37.4683 35.8004 33.1175 40.7724C28.858 45.6348 26.7557 51.0089 26.7557 57.0229C26.7557 63.1465 28.7483 68.1551 33.2454 73.4013C36.1703 76.8196 40.2835 79.6712 44.1773 80.9873C47.8518 82.2121 52.3671 82.3583 89.4588 82.3583C120.5 82.34 129.914 82.2121 132.272 81.7185C136.861 80.768 141.248 78.3003 145.032 74.4981C147.336 72.1949 148.579 70.5132 149.822 68.0089C153.039 61.5745 153.533 55.5788 151.339 49.4552C149.859 45.3057 147.829 42.1799 144.649 39.1273C140.225 34.8681 136.459 32.9122 131.139 32.0897C129.603 31.852 124.613 31.852 123.132 32.0897C120.317 32.5466 116.697 34.0638 113.699 36.0563C111.359 37.6101 108.032 40.8821 106.588 43.0756C102.383 49.4369 101.195 56.7122 103.169 63.896C103.791 66.1261 105.674 69.7454 107.575 72.268C108.489 73.511 109.202 74.553 109.166 74.6078C109.038 74.7175 70.0629 74.7175 69.935 74.6078C69.8984 74.553 70.2823 74.0411 70.8124 73.4562C73.5911 70.3487 75.9128 65.6874 76.772 61.4831C77.1376 59.6552 77.0462 54.5369 76.5892 51.9778C75.5106 46.0186 71.0866 39.7122 65.2368 35.8735C61.4527 33.3875 58.4546 32.3639 53.6285 31.9251C51.3068 31.7058 50.6304 31.7058 48.8755 31.9069ZM56.6448 39.7488C59.9902 40.681 62.714 42.2896 64.9809 44.6477C68.5639 48.4133 70.2457 53.3487 69.6973 58.6498C68.9112 66.3637 64.1034 72.2132 56.919 74.1508C55.548 74.5347 54.963 74.5895 51.8004 74.5712C47.669 74.5712 46.499 74.3336 43.6472 72.9444C40.3384 71.3358 37.7425 68.6852 35.9327 65.0659C34.7444 62.6896 34.5799 61.9218 34.4885 58.0466C34.3605 53.2573 34.5434 51.9595 35.695 49.5466C36.865 47.0789 37.8705 45.6348 39.4609 44.0445C41.6363 41.8875 44.7623 40.2058 47.87 39.5111C49.8078 39.0907 54.6888 39.2187 56.6448 39.7488ZM129.293 39.4197C131.943 39.6574 133.79 40.1326 135.618 41.0283C139.877 43.1305 143.186 47.1703 144.594 52.0143C145.087 53.696 145.087 60.2767 144.594 62.0498C144.228 63.4025 142.967 65.9981 141.961 67.5153C139.621 71.0433 135.892 73.4745 131.413 74.4067C129.786 74.7357 125.6 74.7906 123.772 74.4981C118.562 73.6755 113.48 69.6906 111.122 64.5541C109.952 62.0498 109.659 60.5326 109.659 57.1326C109.659 53.5498 110.006 51.8681 111.304 49.1262C112.749 46.0735 114.723 43.7885 117.41 42.052C121.158 39.6208 124.229 38.9445 129.293 39.4197Z" fill="black"/>
</g>
<defs>
<clipPath id="clip0">
<rect width="179" height="115" fill="white"/>
</clipPath>
</defs>
</svg>
