<svg width="32" height="20" viewBox="0 0 32 20" fill="none" xmlns="http://www.w3.org/2000/svg">
<g clip-path="url(#clip0)">
<path d="M4.14531 0.0177047C3.68432 0.0367789 3.54125 0.0558532 3.31553 0.122613C2.39036 0.402369 1.63051 0.885584 1.09004 1.54365C0.651299 2.0809 0.349268 2.58955 0.139436 3.14906L0.00908624 3.4924L0.0027277 9.59934C-0.00363084 16.0306 -0.000451581 16.2086 0.136257 16.749C0.29522 17.3594 0.848413 18.2336 1.40479 18.7455C2.20278 19.4798 3.06118 19.8645 4.11352 19.9599C4.73666 20.0139 26.3907 20.0139 27.0043 19.9599C28.1742 19.8549 29.0899 19.4067 29.9324 18.5293C30.3934 18.0492 30.6922 17.5597 30.9815 16.8221L31.1087 16.5011L31.1246 10.747C31.1373 7.06247 31.1309 4.72269 31.1119 4.24583C31.0801 3.53055 31.0737 3.48604 30.9783 3.21264C30.8226 2.76758 30.4951 2.12859 30.2694 1.82976C29.8116 1.22574 29.1471 0.694841 28.4318 0.354683C27.9644 0.135329 27.7959 0.0812856 27.4398 0.043137C27.0996 0.00498848 5.03551 -0.0172648 4.14531 0.0177047ZM26.9089 1.31475C27.4653 1.34019 27.5129 1.34655 27.8245 1.45463C28.2205 1.59039 28.5834 1.80805 28.8896 2.09343C29.1958 2.37881 29.4385 2.7255 29.6017 3.11092C29.802 3.58777 29.8274 3.76898 29.8656 4.94522C29.9101 6.32493 29.9101 13.3347 29.8656 14.813C29.8306 16.0592 29.8084 16.2626 29.6971 16.5964C29.5222 17.1051 29.2743 17.4929 28.8864 17.8553C28.5728 18.15 28.1999 18.3743 27.7927 18.5134C27.4875 18.6215 27.4303 18.6278 26.9248 18.6533C25.9805 18.6946 10.1573 18.72 6.84769 18.6851L3.7797 18.6501L3.50946 18.5674C3.03575 18.4244 2.52071 18.1319 2.18053 17.8076C1.99295 17.636 1.69092 17.21 1.56375 16.9461C1.48201 16.7606 1.41401 16.5694 1.36028 16.3739C1.28397 16.0655 1.28079 16.0083 1.24582 14.4983C1.20767 12.5845 1.2331 4.54466 1.28079 4.05191C1.33548 3.48305 1.54773 2.94072 1.89369 2.48583C2.23965 2.03095 2.70561 1.68155 3.23922 1.47689C3.60484 1.33383 3.8719 1.32111 7.32458 1.28932C10.8949 1.25753 26.0664 1.27979 26.9089 1.31475Z" fill="black"/>
<path d="M8.50011 5.54902C7.50818 5.66665 6.51625 6.22616 5.75958 7.09086C5.01881 7.93648 4.6532 8.87112 4.6532 9.91703C4.6532 10.982 4.99974 11.8531 5.78184 12.7654C6.29052 13.3599 7.00586 13.8559 7.68304 14.0848C8.32207 14.2977 9.10735 14.3232 15.5581 14.3232C20.9565 14.32 22.5938 14.2977 23.0039 14.2119C23.8019 14.0466 24.565 13.6174 25.2231 12.9562C25.6236 12.5556 25.8398 12.2632 26.056 11.8276C26.6156 10.7086 26.7014 9.66588 26.3199 8.6009C26.0624 7.87926 25.7095 7.33564 25.1563 6.80474C24.3869 6.06403 23.732 5.72387 22.8068 5.58081C22.5398 5.53948 21.6718 5.53948 21.4143 5.58081C20.9247 5.66029 20.2952 5.92415 19.7738 6.27066C19.3668 6.54088 18.7882 7.10993 18.5371 7.49142C17.8058 8.59772 17.5992 9.86298 17.9425 11.1123C18.0506 11.5002 18.3781 12.1296 18.7087 12.5683C18.8677 12.7845 18.9917 12.9657 18.9853 12.9753C18.9631 12.9943 12.1849 12.9943 12.1626 12.9753C12.1563 12.9657 12.223 12.8767 12.3152 12.775C12.7985 12.2345 13.2022 11.4239 13.3517 10.6927C13.4153 10.3748 13.3994 9.48468 13.3199 9.03961C13.1323 8.00324 12.3629 6.90647 11.3456 6.23887C10.6874 5.80652 10.166 5.6285 9.32672 5.5522C8.92296 5.51405 8.80532 5.51405 8.50011 5.54902ZM9.8513 6.91283C10.4331 7.07496 10.9068 7.35472 11.301 7.76481C11.9242 8.4197 12.2167 9.27804 12.1213 10.2C11.9846 11.5415 11.1484 12.5588 9.89899 12.8958C9.66054 12.9625 9.55881 12.9721 9.0088 12.9689C8.29028 12.9689 8.08681 12.9276 7.59084 12.686C7.01539 12.4062 6.56394 11.9453 6.24919 11.3158C6.04254 10.9025 6.01392 10.769 5.99803 10.0951C5.97577 9.26214 6.00757 9.03643 6.20786 8.6168C6.41133 8.18763 6.58619 7.93648 6.86279 7.65991C7.24112 7.28478 7.78478 6.99231 8.32525 6.8715C8.66225 6.79838 9.51112 6.82064 9.8513 6.91283ZM22.4857 6.85561C22.9467 6.89694 23.2678 6.97959 23.5857 7.13536C24.3265 7.50095 24.902 8.20352 25.1468 9.04597C25.2326 9.33844 25.2326 10.4829 25.1468 10.7913C25.0832 11.0265 24.8638 11.4779 24.6889 11.7418C24.282 12.3554 23.6334 12.7782 22.8545 12.9403C22.5716 12.9975 21.8435 13.0071 21.5256 12.9562C20.6195 12.8131 19.7356 12.1201 19.3255 11.2268C19.122 10.7913 19.0712 10.5274 19.0712 9.9361C19.0712 9.31301 19.1316 9.02054 19.3573 8.54368C19.6085 8.01278 19.9518 7.6154 20.4192 7.31339C21.0709 6.89058 21.6051 6.77295 22.4857 6.85561Z" fill="black"/>
</g>
<defs>
<clipPath id="clip0">
<rect width="31.1304" height="20" fill="white"/>
</clipPath>
</defs>
</svg>
