<svg width="20" height="13" viewBox="0 0 20 13" fill="none" xmlns="http://www.w3.org/2000/svg">
<g clip-path="url(#clip0)">
<path d="M2.66352 0.011157C2.36735 0.0230784 2.27543 0.0349998 2.13041 0.0767248C1.53603 0.251572 1.04786 0.553582 0.700631 0.964871C0.418759 1.30066 0.224717 1.61856 0.0899093 1.96826L0.00616486 2.18284L0.00207977 5.99968C-0.00200532 10.0192 3.72179e-05 10.1305 0.0878667 10.4682C0.189994 10.8497 0.545397 11.3961 0.902843 11.716C1.41552 12.175 1.96701 12.4154 2.64309 12.475C3.04343 12.5088 16.9552 12.5088 17.3494 12.475C18.1011 12.4094 18.6893 12.1293 19.2306 11.5809C19.5268 11.2809 19.7188 10.9749 19.9047 10.5139L19.9864 10.3133L19.9966 6.71696C20.0047 4.41413 20.0007 2.95177 19.9884 2.65374C19.968 2.20669 19.9639 2.17887 19.9026 2.008C19.8025 1.72983 19.5921 1.33046 19.4471 1.14369C19.153 0.76618 18.7261 0.434367 18.2665 0.221769C17.9663 0.0846724 17.858 0.050895 17.6293 0.0270522C17.4107 0.00320935 3.23543 -0.010699 2.66352 0.011157ZM17.2882 0.821814C17.6456 0.837709 17.6762 0.841683 17.8764 0.909237C18.1308 0.994087 18.364 1.13012 18.5607 1.30849C18.7574 1.48685 18.9133 1.70353 19.0182 1.94441C19.1469 2.24245 19.1632 2.3557 19.1877 3.09086C19.2163 3.95317 19.2163 8.3343 19.1877 9.25821C19.1653 10.0371 19.151 10.1642 19.0795 10.3729C18.9671 10.6908 18.8078 10.9332 18.5586 11.1597C18.3571 11.3438 18.1176 11.484 17.856 11.571C17.6599 11.6385 17.6231 11.6425 17.2984 11.6584C16.6917 11.6842 6.52597 11.7001 4.39968 11.6783L2.42863 11.6564L2.25501 11.6047C1.95067 11.5153 1.61978 11.3325 1.40122 11.1299C1.28071 11.0226 1.08667 10.7563 1.00497 10.5914C0.952459 10.4755 0.908768 10.3559 0.874247 10.2338C0.825226 10.041 0.823184 10.0053 0.800716 9.0615C0.776205 7.86539 0.792545 2.84051 0.823184 2.53254C0.858317 2.177 0.994676 1.83804 1.21694 1.55374C1.43921 1.26944 1.73857 1.05106 2.08139 0.923146C2.31629 0.833735 2.48786 0.825787 4.70607 0.805918C6.99985 0.786049 16.7469 0.799958 17.2882 0.821814Z" fill="black"/>
<path d="M5.46098 3.46815C4.82371 3.54166 4.18643 3.89136 3.70031 4.4318C3.22439 4.96031 2.9895 5.54446 2.9895 6.19815C2.9895 6.86376 3.21214 7.40817 3.71461 7.97842C4.04141 8.34997 4.50099 8.65992 4.93605 8.80298C5.3466 8.9361 5.85111 8.952 9.99544 8.952C13.4637 8.95001 14.5156 8.9361 14.7791 8.88246C15.2918 8.77914 15.782 8.51091 16.2048 8.09763C16.4621 7.84728 16.601 7.66448 16.7399 7.39228C17.0994 6.69289 17.1546 6.04119 16.9095 5.37557C16.744 4.92455 16.5173 4.58479 16.1619 4.25297C15.6676 3.79003 15.2468 3.57743 14.6524 3.48802C14.4809 3.46219 13.9233 3.46219 13.7578 3.48802C13.4433 3.53769 13.0388 3.7026 12.7039 3.91917C12.4424 4.08806 12.0707 4.44372 11.9093 4.68214C11.4395 5.37359 11.3068 6.16437 11.5273 6.94523C11.5968 7.18763 11.8072 7.58104 12.0196 7.85523C12.1217 7.99034 12.2014 8.10359 12.1973 8.10955C12.183 8.12147 7.82829 8.12147 7.814 8.10955C7.80991 8.10359 7.8528 8.04796 7.91204 7.98438C8.22251 7.6466 8.48191 7.13994 8.57791 6.68296C8.61876 6.48426 8.60855 5.92793 8.55748 5.64977C8.43697 5.00204 7.94268 4.31655 7.28906 3.89931C6.86625 3.62909 6.53128 3.51782 5.99204 3.47013C5.73264 3.44629 5.65707 3.44629 5.46098 3.46815ZM6.32907 4.32053C6.70285 4.42186 7.00719 4.59671 7.26047 4.85302C7.66081 5.26232 7.84872 5.79878 7.78744 6.37499C7.69961 7.21346 7.16242 7.84927 6.3597 8.05988C6.20651 8.1016 6.14115 8.10756 5.78779 8.10558C5.32617 8.10558 5.19545 8.07975 4.87681 7.92874C4.50711 7.7539 4.21707 7.46579 4.01486 7.07239C3.88209 6.81409 3.86371 6.73064 3.8535 6.30942C3.8392 5.78885 3.85963 5.64778 3.98831 5.38551C4.11903 5.11728 4.23137 4.96031 4.40907 4.78745C4.65213 4.553 5.00141 4.3702 5.34864 4.2947C5.56515 4.249 6.11051 4.26291 6.32907 4.32053ZM14.4461 4.28476C14.7423 4.31059 14.9486 4.36225 15.1529 4.45961C15.6288 4.68811 15.9985 5.12721 16.1558 5.65374C16.2109 5.83653 16.2109 6.55182 16.1558 6.74455C16.1149 6.89158 15.974 7.17372 15.8616 7.33863C15.6002 7.72211 15.1835 7.98636 14.6831 8.0877C14.5013 8.12346 14.0336 8.12942 13.8293 8.09763C13.2472 8.00822 12.6793 7.57507 12.4159 7.01676C12.2851 6.74455 12.2524 6.57964 12.2524 6.21007C12.2524 5.82064 12.2913 5.63784 12.4363 5.33981C12.5976 5.008 12.8182 4.75963 13.1185 4.57088C13.5372 4.30662 13.8804 4.2331 14.4461 4.28476Z" fill="black"/>
</g>
<defs>
<clipPath id="clip0">
<rect width="20" height="12.5" fill="white"/>
</clipPath>
</defs>
</svg>
