<svg width="24" height="24" viewBox="0 0 24 24" fill="none" xmlns="http://www.w3.org/2000/svg">
<path d="M3.92979 5.01225C3.604 5.02536 3.5029 5.03848 3.34337 5.08437C2.68955 5.27671 2.15256 5.60892 1.77061 6.06134C1.46055 6.43071 1.2471 6.7804 1.09881 7.16507L1.00669 7.40111L1.0022 11.5997C0.997703 16.0211 0.999949 16.1435 1.09656 16.5151C1.2089 16.9347 1.59985 17.5358 1.99304 17.8876C2.55699 18.3925 3.16363 18.657 3.90732 18.7225C4.3477 18.7597 19.6507 18.7597 20.0844 18.7225C20.9112 18.6504 21.5583 18.3422 22.1537 17.739C22.4795 17.409 22.6907 17.0724 22.8951 16.5653L22.985 16.3446L22.9962 12.3887C23.0052 9.85555 23.0007 8.24694 22.9873 7.9191C22.9648 7.42734 22.9603 7.39674 22.8929 7.20878C22.7828 6.9028 22.5514 6.46349 22.3918 6.25804C22.0683 5.84278 21.5987 5.47778 21.0932 5.24392C20.7629 5.09312 20.6438 5.05596 20.3922 5.02973C20.1518 5.00351 4.5589 4.98821 3.92979 5.01225ZM20.017 5.90397C20.4102 5.92146 20.4439 5.92583 20.664 6.00014C20.9439 6.09348 21.2004 6.24312 21.4168 6.43932C21.6332 6.63552 21.8046 6.87387 21.92 7.13884C22.0616 7.46668 22.0795 7.59126 22.1065 8.39993C22.138 9.34849 22.138 14.1677 22.1065 15.184C22.0818 16.0408 22.0661 16.1807 21.9874 16.4102C21.8638 16.7599 21.6886 17.0265 21.4145 17.2757C21.1929 17.4782 20.9294 17.6325 20.6416 17.7281C20.4259 17.8024 20.3854 17.8068 20.0282 17.8243C19.3609 17.8527 8.17851 17.8702 5.83958 17.8461L3.67141 17.8221L3.48043 17.7652C3.14566 17.6669 2.78167 17.4658 2.54126 17.2429C2.4087 17.1249 2.19525 16.832 2.10538 16.6506C2.04762 16.5231 1.99956 16.3916 1.96158 16.2572C1.90766 16.0452 1.90541 16.0058 1.8807 14.9677C1.85374 13.6519 1.87171 8.12455 1.90541 7.78578C1.94406 7.39469 2.09406 7.02183 2.33855 6.70909C2.58304 6.39636 2.91234 6.15615 3.28945 6.01544C3.54783 5.91709 3.73657 5.90835 6.1766 5.88649C8.69977 5.86463 19.4216 5.87993 20.017 5.90397Z" fill="black"/>
<path d="M7.00703 8.81496C6.30603 8.89583 5.60502 9.2805 5.07028 9.87498C4.54677 10.4563 4.28839 11.0989 4.28839 11.818C4.28839 12.5502 4.53329 13.149 5.08601 13.7763C5.4455 14.185 5.95103 14.5259 6.4296 14.6833C6.88121 14.8297 7.43617 14.8472 11.995 14.8472C15.81 14.845 16.9671 14.8297 17.257 14.7707C17.8209 14.6571 18.3602 14.362 18.8253 13.9074C19.1084 13.632 19.2611 13.431 19.4139 13.1315C19.8094 12.3622 19.87 11.6453 19.6004 10.9131C19.4184 10.417 19.169 10.0433 18.7781 9.67828C18.2343 9.16903 17.7715 8.93517 17.1177 8.83682C16.929 8.80841 16.3156 8.80841 16.1336 8.83682C15.7876 8.89146 15.3427 9.07286 14.9742 9.31109C14.6866 9.49687 14.2777 9.88809 14.1002 10.1504C13.5834 10.911 13.4374 11.7808 13.6801 12.6398C13.7565 12.9064 13.9879 13.3392 14.2215 13.6408C14.3339 13.7894 14.4215 13.914 14.417 13.9205C14.4013 13.9336 9.61109 13.9336 9.59536 13.9205C9.59087 13.914 9.63805 13.8528 9.70321 13.7828C10.0447 13.4113 10.3301 12.854 10.4357 12.3513C10.4806 12.1327 10.4694 11.5207 10.4132 11.2148C10.2806 10.5022 9.73691 9.74821 9.01793 9.28924C8.55284 8.992 8.18436 8.8696 7.5912 8.81715C7.30586 8.79092 7.22273 8.79092 7.00703 8.81496ZM7.96193 9.75259C8.37309 9.86405 8.70787 10.0564 8.98647 10.3383C9.42685 10.7886 9.63355 11.3787 9.56615 12.0125C9.46954 12.9348 8.87863 13.6342 7.99563 13.8659C7.82712 13.9118 7.75522 13.9183 7.36652 13.9162C6.85874 13.9162 6.71495 13.8877 6.36444 13.7216C5.95777 13.5293 5.63872 13.2124 5.41629 12.7796C5.27025 12.4955 5.25003 12.4037 5.23879 11.9404C5.22306 11.3677 5.24553 11.2126 5.38708 10.9241C5.53088 10.629 5.65445 10.4563 5.84992 10.2662C6.1173 10.0083 6.5015 9.80723 6.88346 9.72417C7.12162 9.6739 7.72152 9.6892 7.96193 9.75259ZM16.8908 9.71324C17.2165 9.74166 17.4435 9.79848 17.6682 9.90558C18.1917 10.1569 18.5983 10.6399 18.7713 11.2191C18.832 11.4202 18.832 12.207 18.7713 12.419C18.7264 12.5808 18.5714 12.8911 18.4478 13.0725C18.1602 13.4943 17.7019 13.785 17.1514 13.8965C16.9514 13.9358 16.4369 13.9424 16.2122 13.9074C15.5719 13.8091 14.9473 13.3326 14.6574 12.7184C14.5136 12.419 14.4777 12.2376 14.4777 11.8311C14.4777 11.4027 14.5204 11.2016 14.6799 10.8738C14.8574 10.5088 15.1 10.2356 15.4303 10.028C15.8909 9.73729 16.2684 9.65642 16.8908 9.71324Z" fill="black"/>
</svg>
