<svg width="20" height="14" viewBox="0 0 20 14" fill="none" xmlns="http://www.w3.org/2000/svg">
<g clip-path="url(#clip0)">
<path d="M18.2176 0H1.85781C0.854297 0 0 0.755884 0 1.71391V12.1524C0 13.1105 0.854297 13.913 1.85781 13.913H18.2176C19.2211 13.913 20 13.1105 20 12.1524V1.71391C20 0.755884 19.2211 0 18.2176 0ZM19.2723 12.1524C19.2723 12.7267 18.8199 13.2173 18.2176 13.2173H1.85781C1.25547 13.2173 0.727344 12.7267 0.727344 12.1524V1.71391C0.727344 1.13962 1.25547 0.695727 1.85781 0.695727H18.2176C18.8203 0.695727 19.2723 1.13962 19.2723 1.71391V12.1524Z" fill="black"/>
<path d="M9.14064 2.88716H2.23165C2.18389 2.88716 2.1366 2.89616 2.09248 2.91364C2.04836 2.93112 2.00827 2.95675 1.9745 2.98905C1.94073 3.02135 1.91394 3.0597 1.89566 3.1019C1.87739 3.14411 1.86798 3.18934 1.86798 3.23502C1.86798 3.28071 1.87739 3.32594 1.89566 3.36815C1.91394 3.41035 1.94073 3.4487 1.9745 3.481C2.00827 3.5133 2.04836 3.53893 2.09248 3.55641C2.1366 3.57389 2.18389 3.58289 2.23165 3.58289H9.14064C9.23709 3.58289 9.32959 3.54624 9.39779 3.481C9.46599 3.41576 9.50431 3.32728 9.50431 3.23502C9.50431 3.14277 9.46599 3.05429 9.39779 2.98905C9.32959 2.92381 9.23709 2.88716 9.14064 2.88716Z" fill="black"/>
<path d="M9.14065 5.59795H2.23167C2.18293 5.59642 2.13437 5.60428 2.08888 5.62107C2.04339 5.63785 2.00188 5.66322 1.96684 5.69565C1.9318 5.72809 1.90394 5.76693 1.88491 5.80988C1.86588 5.85282 1.85608 5.89899 1.85608 5.94563C1.85608 5.99227 1.86588 6.03843 1.88491 6.08138C1.90394 6.12432 1.9318 6.16317 1.96684 6.1956C2.00188 6.22804 2.04339 6.2534 2.08888 6.27019C2.13437 6.28697 2.18293 6.29483 2.23167 6.2933H9.14065C9.18939 6.29483 9.23795 6.28697 9.28344 6.27019C9.32894 6.2534 9.37044 6.22804 9.40548 6.1956C9.44052 6.16317 9.46838 6.12432 9.48741 6.08138C9.50644 6.03843 9.51624 5.99227 9.51624 5.94563C9.51624 5.89899 9.50644 5.85282 9.48741 5.80988C9.46838 5.76693 9.44052 5.72809 9.40548 5.69565C9.37044 5.66322 9.32894 5.63785 9.28344 5.62107C9.23795 5.60428 9.18939 5.59642 9.14065 5.59795Z" fill="black"/>
<path d="M9.14064 8.40178H2.23165C2.1352 8.40178 2.0427 8.43843 1.9745 8.50367C1.9063 8.5689 1.86798 8.65738 1.86798 8.74964C1.86798 8.8419 1.9063 8.93038 1.9745 8.99562C2.0427 9.06085 2.1352 9.0975 2.23165 9.0975H9.14064C9.23709 9.0975 9.32959 9.06085 9.39779 8.99562C9.46599 8.93038 9.50431 8.8419 9.50431 8.74964C9.50431 8.65738 9.46599 8.5689 9.39779 8.50367C9.32959 8.43843 9.23709 8.40178 9.14064 8.40178Z" fill="black"/>
<path d="M17.8516 2.88716H10.9426C10.8461 2.88716 10.7536 2.92381 10.6854 2.98905C10.6172 3.05429 10.5789 3.14277 10.5789 3.23502C10.5789 3.32728 10.6172 3.41576 10.6854 3.481C10.7536 3.54624 10.8461 3.58289 10.9426 3.58289H17.8516C17.948 3.58289 18.0405 3.54624 18.1087 3.481C18.1769 3.41576 18.2153 3.32728 18.2153 3.23502C18.2153 3.14277 18.1769 3.05429 18.1087 2.98905C18.0405 2.92381 17.948 2.88716 17.8516 2.88716Z" fill="black"/>
<path d="M17.8515 5.59795H10.9425C10.8938 5.59642 10.8453 5.60428 10.7998 5.62107C10.7543 5.63785 10.7128 5.66322 10.6777 5.69565C10.6427 5.72809 10.6148 5.76693 10.5958 5.80988C10.5768 5.85282 10.567 5.89899 10.567 5.94563C10.567 5.99227 10.5768 6.03843 10.5958 6.08138C10.6148 6.12432 10.6427 6.16317 10.6777 6.1956C10.7128 6.22804 10.7543 6.2534 10.7998 6.27019C10.8453 6.28697 10.8938 6.29483 10.9425 6.2933H17.8515C17.9003 6.29483 17.9488 6.28697 17.9943 6.27019C18.0398 6.2534 18.0813 6.22804 18.1164 6.1956C18.1514 6.16317 18.1793 6.12432 18.1983 6.08138C18.2173 6.03843 18.2271 5.99227 18.2271 5.94563C18.2271 5.89899 18.2173 5.85282 18.1983 5.80988C18.1793 5.76693 18.1514 5.72809 18.1164 5.69565C18.0813 5.66322 18.0398 5.63785 17.9943 5.62107C17.9488 5.60428 17.9003 5.59642 17.8515 5.59795Z" fill="black"/>
<path d="M17.8516 8.40178H10.9426C10.8461 8.40178 10.7536 8.43843 10.6854 8.50367C10.6172 8.5689 10.5789 8.65738 10.5789 8.74964C10.5789 8.8419 10.6172 8.93038 10.6854 8.99562C10.7536 9.06085 10.8461 9.0975 10.9426 9.0975H17.8516C17.948 9.0975 18.0405 9.06085 18.1087 8.99562C18.1769 8.93038 18.2153 8.8419 18.2153 8.74964C18.2153 8.65738 18.1769 8.5689 18.1087 8.50367C18.0405 8.43843 17.948 8.40178 17.8516 8.40178Z" fill="black"/>
<path d="M10.5926 10.4811C10.259 10.3096 9.99884 10.3369 9.99884 10.3369C9.70908 10.3379 9.43147 10.4484 9.22658 10.6444C9.02168 10.8404 8.90612 11.1059 8.90509 11.3831C8.90591 11.6587 9.02076 11.9229 9.22452 12.1178C9.42829 12.3127 9.70442 12.4225 9.99259 12.4233H10.0317C10.3119 12.4232 10.5806 12.3167 10.7787 12.1272C10.9768 11.9377 11.0882 11.6806 11.0883 11.4126C11.112 11.2368 11.0857 11.0582 11.0121 10.8955C10.9133 10.6847 10.8777 10.628 10.5926 10.4811ZM10.7231 11.3954C10.7229 11.5758 10.6478 11.7488 10.5143 11.8763C10.3809 12.0038 10.2 12.0755 10.0113 12.0755H9.98009C9.79133 12.0755 9.6103 12.0037 9.47683 11.8761C9.34336 11.7484 9.26837 11.5752 9.26837 11.3947V11.3655C9.26837 11.185 9.34336 11.0118 9.47683 10.8841C9.6103 10.7565 9.79133 10.6847 9.98009 10.6847H10.0109C10.1997 10.6847 10.3808 10.7565 10.5143 10.8841C10.6479 11.0118 10.723 11.1849 10.7231 11.3655V11.3954Z" fill="black"/>
</g>
<defs>
<clipPath id="clip0">
<rect width="20" height="13.913" fill="white"/>
</clipPath>
</defs>
</svg>
