<svg width="152" height="111" viewBox="0 0 152 111" fill="none" xmlns="http://www.w3.org/2000/svg">
<g clip-path="url(#clip0)">
<path d="M138.454 0H14.1194C6.49266 0 0 6.03054 0 13.6738V96.9536C0 104.597 6.49266 111 14.1194 111H138.454C146.08 111 152 104.597 152 96.9536V13.6738C152 6.03054 146.08 0 138.454 0ZM146.469 96.9536C146.469 101.535 143.031 105.449 138.454 105.449H14.1194C9.54156 105.449 5.52781 101.535 5.52781 96.9536V13.6738C5.52781 9.09201 9.54156 5.5506 14.1194 5.5506H138.454C143.034 5.5506 146.469 9.09201 146.469 13.6738V96.9536Z" fill="black"/>
<path d="M69.4687 23.0341H16.9604C16.5975 23.0341 16.2381 23.1059 15.9027 23.2453C15.5674 23.3848 15.2627 23.5892 15.0061 23.8469C14.7494 24.1046 14.5458 24.4106 14.4069 24.7473C14.268 25.084 14.1965 25.4449 14.1965 25.8094C14.1965 26.1738 14.268 26.5347 14.4069 26.8714C14.5458 27.2081 14.7494 27.5141 15.0061 27.7718C15.2627 28.0295 15.5674 28.2339 15.9027 28.3734C16.2381 28.5129 16.5975 28.5847 16.9604 28.5847H69.4687C70.2018 28.5847 70.9048 28.2923 71.4231 27.7718C71.9414 27.2513 72.2326 26.5454 72.2326 25.8094C72.2326 25.0733 71.9414 24.3674 71.4231 23.8469C70.9048 23.3265 70.2018 23.0341 69.4687 23.0341Z" fill="black"/>
<path d="M69.4688 44.6611H16.9605C16.5901 44.6489 16.2211 44.7117 15.8753 44.8456C15.5295 44.9795 15.2141 45.1818 14.9478 45.4406C14.6815 45.6994 14.4698 46.0093 14.3252 46.3519C14.1805 46.6945 14.106 47.0628 14.106 47.4349C14.106 47.8071 14.1805 48.1754 14.3252 48.518C14.4698 48.8606 14.6815 49.1705 14.9478 49.4293C15.2141 49.688 15.5295 49.8904 15.8753 50.0243C16.2211 50.1582 16.5901 50.2209 16.9605 50.2087H69.4688C69.8392 50.2209 70.2082 50.1582 70.554 50.0243C70.8997 49.8904 71.2151 49.688 71.4814 49.4293C71.7477 49.1705 71.9595 48.8606 72.1041 48.518C72.2487 48.1754 72.3233 47.8071 72.3233 47.4349C72.3233 47.0628 72.2487 46.6945 72.1041 46.3519C71.9595 46.0093 71.7477 45.6994 71.4814 45.4406C71.2151 45.1818 70.8997 44.9795 70.554 44.8456C70.2082 44.7117 69.8392 44.6489 69.4688 44.6611Z" fill="black"/>
<path d="M69.4687 67.0305H16.9604C16.2274 67.0305 15.5244 67.3229 15.0061 67.8433C14.4877 68.3638 14.1965 69.0697 14.1965 69.8057C14.1965 70.5418 14.4877 71.2477 15.0061 71.7682C15.5244 72.2886 16.2274 72.581 16.9604 72.581H69.4687C70.2018 72.581 70.9048 72.2886 71.4231 71.7682C71.9414 71.2477 72.2326 70.5418 72.2326 69.8057C72.2326 69.0697 71.9414 68.3638 71.4231 67.8433C70.9048 67.3229 70.2018 67.0305 69.4687 67.0305Z" fill="black"/>
<path d="M135.672 23.0341H83.1636C82.4305 23.0341 81.7275 23.3265 81.2092 23.8469C80.6909 24.3674 80.3997 25.0733 80.3997 25.8094C80.3997 26.5454 80.6909 27.2513 81.2092 27.7718C81.7275 28.2923 82.4305 28.5847 83.1636 28.5847H135.672C136.405 28.5847 137.108 28.2923 137.626 27.7718C138.145 27.2513 138.436 26.5454 138.436 25.8094C138.436 25.0733 138.145 24.3674 137.626 23.8469C137.108 23.3265 136.405 23.0341 135.672 23.0341Z" fill="black"/>
<path d="M135.672 44.6611H83.1636C82.7932 44.6489 82.4242 44.7117 82.0784 44.8456C81.7327 44.9795 81.4173 45.1818 81.151 45.4406C80.8847 45.6994 80.6729 46.0093 80.5283 46.3519C80.3837 46.6945 80.3091 47.0628 80.3091 47.4349C80.3091 47.8071 80.3837 48.1754 80.5283 48.518C80.6729 48.8606 80.8847 49.1705 81.151 49.4293C81.4173 49.688 81.7327 49.8904 82.0784 50.0243C82.4242 50.1582 82.7932 50.2209 83.1636 50.2087H135.672C136.042 50.2209 136.411 50.1582 136.757 50.0243C137.103 49.8904 137.418 49.688 137.685 49.4293C137.951 49.1705 138.163 48.8606 138.307 48.518C138.452 48.1754 138.526 47.8071 138.526 47.4349C138.526 47.0628 138.452 46.6945 138.307 46.3519C138.163 46.0093 137.951 45.6994 137.685 45.4406C137.418 45.1818 137.103 44.9795 136.757 44.8456C136.411 44.7117 136.042 44.6489 135.672 44.6611Z" fill="black"/>
<path d="M135.672 67.0305H83.1636C82.4305 67.0305 81.7275 67.3229 81.2092 67.8433C80.6909 68.3638 80.3997 69.0697 80.3997 69.8057C80.3997 70.5418 80.6909 71.2477 81.2092 71.7682C81.7275 72.2886 82.4305 72.581 83.1636 72.581H135.672C136.405 72.581 137.108 72.2886 137.626 71.7682C138.145 71.2477 138.436 70.5418 138.436 69.8057C138.436 69.0697 138.145 68.3638 137.626 67.8433C137.108 67.3229 136.405 67.0305 135.672 67.0305Z" fill="black"/>
<path d="M80.5036 83.6196C77.9683 82.2514 75.9911 82.469 75.9911 82.469C73.7889 82.4768 71.6791 83.3588 70.1219 84.9224C68.5647 86.486 67.6864 88.6045 67.6786 90.8157C67.6849 93.0149 68.5576 95.1221 70.1063 96.6771C71.6549 98.2321 73.7535 99.1085 75.9436 99.1148H76.2405C78.37 99.114 80.4122 98.2642 81.918 96.7522C83.4238 95.2401 84.2701 93.1896 84.2709 91.0512C84.4512 89.6488 84.2512 88.2234 83.692 86.9256C82.9409 85.2443 82.6708 84.7912 80.5036 83.6196ZM81.4952 90.9141C81.4936 92.3536 80.923 93.7335 79.9088 94.7508C78.8945 95.7681 77.5196 96.3395 76.0861 96.3395H75.8486C74.414 96.3395 73.0382 95.7673 72.0238 94.7487C71.0094 93.7301 70.4395 92.3486 70.4395 90.9082V90.6756C70.4395 89.2352 71.0094 87.8537 72.0238 86.8351C73.0382 85.8165 74.414 85.2443 75.8486 85.2443H76.0831C77.518 85.2443 78.8941 85.8164 79.909 86.8349C80.9238 87.8534 81.4944 89.2349 81.4952 90.6756V90.9141Z" fill="black"/>
</g>
<defs>
<clipPath id="clip0">
<rect width="152" height="111" fill="white"/>
</clipPath>
</defs>
</svg>
