<svg width="28" height="20" viewBox="0 0 28 20" fill="none" xmlns="http://www.w3.org/2000/svg">
<g clip-path="url(#clip0)">
<path d="M24.9466 0H2.54403C1.16985 0 0 1.08658 0 2.46374V17.4691C0 18.8463 1.16985 20 2.54403 20H24.9466C26.3208 20 27.3874 18.8463 27.3874 17.4691V2.46374C27.3874 1.08658 26.3208 0 24.9466 0ZM26.3909 17.4691C26.3909 18.2947 25.7714 18.9999 24.9466 18.9999H2.54403C1.7192 18.9999 0.996002 18.2947 0.996002 17.4691V2.46374C0.996002 1.6382 1.7192 1.00011 2.54403 1.00011H24.9466C25.772 1.00011 26.3909 1.6382 26.3909 2.46374V17.4691Z" fill="black"/>
<path d="M12.5169 4.15028H3.05598C2.99059 4.15028 2.92583 4.16322 2.86541 4.18835C2.80499 4.21348 2.75009 4.25031 2.70384 4.29675C2.6576 4.34318 2.62092 4.39831 2.59589 4.45898C2.57086 4.51964 2.55798 4.58467 2.55798 4.65034C2.55798 4.71601 2.57086 4.78103 2.59589 4.8417C2.62092 4.90237 2.6576 4.9575 2.70384 5.00393C2.75009 5.05036 2.80499 5.0872 2.86541 5.11233C2.92583 5.13746 2.99059 5.15039 3.05598 5.15039H12.5169C12.649 5.15039 12.7757 5.09771 12.8691 5.00393C12.9625 4.91015 13.0149 4.78296 13.0149 4.65034C13.0149 4.51772 12.9625 4.39052 12.8691 4.29675C12.7757 4.20297 12.649 4.15028 12.5169 4.15028Z" fill="black"/>
<path d="M12.5169 8.04705H3.05595C2.98921 8.04485 2.92272 8.05616 2.86042 8.08028C2.79812 8.10441 2.74129 8.14087 2.6933 8.1875C2.64532 8.23413 2.60717 8.28996 2.58111 8.3517C2.55505 8.41343 2.54163 8.47979 2.54163 8.54684C2.54163 8.61389 2.55505 8.68025 2.58111 8.74198C2.60717 8.80371 2.64532 8.85955 2.6933 8.90618C2.74129 8.9528 2.79812 8.98926 2.86042 9.01339C2.92272 9.03752 2.98921 9.04882 3.05595 9.04662H12.5169C12.5836 9.04882 12.6501 9.03752 12.7124 9.01339C12.7747 8.98926 12.8316 8.9528 12.8795 8.90618C12.9275 8.85955 12.9657 8.80371 12.9917 8.74198C13.0178 8.68025 13.0312 8.61389 13.0312 8.54684C13.0312 8.47979 13.0178 8.41343 12.9917 8.3517C12.9657 8.28996 12.9275 8.23413 12.8795 8.1875C12.8316 8.14087 12.7747 8.10441 12.7124 8.08028C12.6501 8.05616 12.5836 8.04485 12.5169 8.04705Z" fill="black"/>
<path d="M12.5169 12.0776H3.05598C2.92391 12.0776 2.79724 12.1302 2.70384 12.224C2.61045 12.3178 2.55798 12.445 2.55798 12.5776C2.55798 12.7102 2.61045 12.8374 2.70384 12.9312C2.79724 13.025 2.92391 13.0777 3.05598 13.0777H12.5169C12.649 13.0777 12.7757 13.025 12.8691 12.9312C12.9625 12.8374 13.0149 12.7102 13.0149 12.5776C13.0149 12.445 12.9625 12.3178 12.8691 12.224C12.7757 12.1302 12.649 12.0776 12.5169 12.0776Z" fill="black"/>
<path d="M24.4454 4.15028H14.9845C14.8524 4.15028 14.7257 4.20297 14.6323 4.29675C14.5389 4.39052 14.4865 4.51772 14.4865 4.65034C14.4865 4.78296 14.5389 4.91015 14.6323 5.00393C14.7257 5.09771 14.8524 5.15039 14.9845 5.15039H24.4454C24.5775 5.15039 24.7042 5.09771 24.7975 5.00393C24.8909 4.91015 24.9434 4.78296 24.9434 4.65034C24.9434 4.51772 24.8909 4.39052 24.7975 4.29675C24.7042 4.20297 24.5775 4.15028 24.4454 4.15028Z" fill="black"/>
<path d="M24.4454 8.04705H14.9844C14.9177 8.04485 14.8512 8.05616 14.7889 8.08028C14.7266 8.10441 14.6698 8.14087 14.6218 8.1875C14.5738 8.23413 14.5356 8.28996 14.5096 8.3517C14.4835 8.41343 14.4701 8.47979 14.4701 8.54684C14.4701 8.61389 14.4835 8.68025 14.5096 8.74198C14.5356 8.80371 14.5738 8.85955 14.6218 8.90618C14.6698 8.9528 14.7266 8.98926 14.7889 9.01339C14.8512 9.03752 14.9177 9.04882 14.9844 9.04662H24.4454C24.5121 9.04882 24.5786 9.03752 24.6409 9.01339C24.7032 8.98926 24.76 8.9528 24.808 8.90618C24.856 8.85955 24.8941 8.80371 24.9202 8.74198C24.9463 8.68025 24.9597 8.61389 24.9597 8.54684C24.9597 8.47979 24.9463 8.41343 24.9202 8.3517C24.8941 8.28996 24.856 8.23413 24.808 8.1875C24.76 8.14087 24.7032 8.10441 24.6409 8.08028C24.5786 8.05616 24.5121 8.04485 24.4454 8.04705Z" fill="black"/>
<path d="M24.4454 12.0776H14.9845C14.8524 12.0776 14.7257 12.1302 14.6323 12.224C14.5389 12.3178 14.4865 12.445 14.4865 12.5776C14.4865 12.7102 14.5389 12.8374 14.6323 12.9312C14.7257 13.025 14.8524 13.0777 14.9845 13.0777H24.4454C24.5775 13.0777 24.7042 13.025 24.7975 12.9312C24.8909 12.8374 24.9434 12.7102 24.9434 12.5776C24.9434 12.445 24.8909 12.3178 24.7975 12.224C24.7042 12.1302 24.5775 12.0776 24.4454 12.0776Z" fill="black"/>
<path d="M14.5052 15.0666C14.0484 14.8201 13.6921 14.8593 13.6921 14.8593C13.2954 14.8607 12.9152 15.0196 12.6346 15.3013C12.3541 15.5831 12.1958 15.9648 12.1944 16.3632C12.1955 16.7594 12.3528 17.1391 12.6318 17.4193C12.9109 17.6995 13.289 17.8574 13.6836 17.8585H13.7371C14.1208 17.8584 14.4887 17.7053 14.7601 17.4328C15.0314 17.1604 15.1839 16.7909 15.184 16.4056C15.2165 16.1529 15.1805 15.8961 15.0797 15.6623C14.9444 15.3593 14.8957 15.2777 14.5052 15.0666ZM14.6839 16.3809C14.6836 16.6403 14.5808 16.8889 14.398 17.0722C14.2153 17.2555 13.9676 17.3585 13.7093 17.3585H13.6665C13.408 17.3585 13.1601 17.2554 12.9773 17.0718C12.7945 16.8883 12.6919 16.6394 12.6919 16.3798V16.338C12.6919 16.0784 12.7945 15.8295 12.9773 15.646C13.1601 15.4624 13.408 15.3593 13.6665 15.3593H13.7087C13.9673 15.3593 14.2152 15.4624 14.3981 15.6459C14.5809 15.8294 14.6837 16.0784 14.6839 16.338V16.3809Z" fill="black"/>
</g>
<defs>
<clipPath id="clip0">
<rect width="27.3874" height="20" fill="white"/>
</clipPath>
</defs>
</svg>
