<svg width="24" height="24" viewBox="0 0 24 24" fill="none" xmlns="http://www.w3.org/2000/svg">
<path d="M21.0393 5H3.04359C1.93973 5 1 5.81494 1 6.84781V18.1018C1 19.1347 1.93973 20 3.04359 20H21.0393C22.1432 20 23 19.1347 23 18.1018V6.84781C23 5.81494 22.1432 5 21.0393 5ZM22.1995 18.1018C22.1995 18.721 21.7019 19.2499 21.0393 19.2499H3.04359C2.38102 19.2499 1.80008 18.721 1.80008 18.1018V6.84781C1.80008 6.22865 2.38102 5.75008 3.04359 5.75008H21.0393C21.7023 5.75008 22.1995 6.22865 22.1995 6.84781V18.1018Z" fill="black"/>
<path d="M11.0547 8.11272H3.45485C3.40231 8.11272 3.3503 8.12242 3.30176 8.14126C3.25323 8.16011 3.20913 8.18774 3.17198 8.22256C3.13483 8.25739 3.10536 8.29873 3.08526 8.34424C3.06516 8.38974 3.05481 8.43851 3.05481 8.48776C3.05481 8.53701 3.06516 8.58578 3.08526 8.63128C3.10536 8.67678 3.13483 8.71812 3.17198 8.75295C3.20913 8.78778 3.25323 8.8154 3.30176 8.83425C3.3503 8.8531 3.40231 8.8628 3.45485 8.8628H11.0547C11.1608 8.8628 11.2626 8.82328 11.3376 8.75295C11.4126 8.68262 11.4548 8.58722 11.4548 8.48776C11.4548 8.38829 11.4126 8.2929 11.3376 8.22256C11.2626 8.15223 11.1608 8.11272 11.0547 8.11272Z" fill="black"/>
<path d="M11.0547 11.0353H3.45484C3.40123 11.0336 3.34781 11.0421 3.29777 11.0602C3.24772 11.0783 3.20207 11.1056 3.16353 11.1406C3.12499 11.1756 3.09434 11.2175 3.0734 11.2638C3.05247 11.3101 3.04169 11.3598 3.04169 11.4101C3.04169 11.4604 3.05247 11.5102 3.0734 11.5565C3.09434 11.6028 3.12499 11.6447 3.16353 11.6796C3.20207 11.7146 3.24772 11.7419 3.29777 11.76C3.34781 11.7781 3.40123 11.7866 3.45484 11.785H11.0547C11.1083 11.7866 11.1617 11.7781 11.2118 11.76C11.2618 11.7419 11.3075 11.7146 11.346 11.6796C11.3846 11.6447 11.4152 11.6028 11.4361 11.5565C11.4571 11.5102 11.4679 11.4604 11.4679 11.4101C11.4679 11.3598 11.4571 11.3101 11.4361 11.2638C11.4152 11.2175 11.3846 11.1756 11.346 11.1406C11.3075 11.1056 11.2618 11.0783 11.2118 11.0602C11.1617 11.0421 11.1083 11.0336 11.0547 11.0353Z" fill="black"/>
<path d="M11.0547 14.0582H3.45485C3.34875 14.0582 3.247 14.0977 3.17198 14.168C3.09696 14.2383 3.05481 14.3337 3.05481 14.4332C3.05481 14.5327 3.09696 14.6281 3.17198 14.6984C3.247 14.7687 3.34875 14.8082 3.45485 14.8082H11.0547C11.1608 14.8082 11.2626 14.7687 11.3376 14.6984C11.4126 14.6281 11.4548 14.5327 11.4548 14.4332C11.4548 14.3337 11.4126 14.2383 11.3376 14.168C11.2626 14.0977 11.1608 14.0582 11.0547 14.0582Z" fill="black"/>
<path d="M20.6368 8.11272H13.0369C12.9308 8.11272 12.829 8.15223 12.754 8.22256C12.679 8.2929 12.6368 8.38829 12.6368 8.48776C12.6368 8.58722 12.679 8.68262 12.754 8.75295C12.829 8.82328 12.9308 8.8628 13.0369 8.8628H20.6368C20.7429 8.8628 20.8446 8.82328 20.9196 8.75295C20.9947 8.68262 21.0368 8.58722 21.0368 8.48776C21.0368 8.38829 20.9947 8.2929 20.9196 8.22256C20.8446 8.15223 20.7429 8.11272 20.6368 8.11272Z" fill="black"/>
<path d="M20.6367 11.0353H13.0368C12.9832 11.0336 12.9298 11.0421 12.8797 11.0602C12.8297 11.0783 12.784 11.1056 12.7455 11.1406C12.707 11.1756 12.6763 11.2175 12.6554 11.2638C12.6344 11.3101 12.6237 11.3598 12.6237 11.4101C12.6237 11.4604 12.6344 11.5102 12.6554 11.5565C12.6763 11.6028 12.707 11.6447 12.7455 11.6796C12.784 11.7146 12.8297 11.7419 12.8797 11.76C12.9298 11.7781 12.9832 11.7866 13.0368 11.785H20.6367C20.6903 11.7866 20.7437 11.7781 20.7938 11.76C20.8438 11.7419 20.8895 11.7146 20.928 11.6796C20.9665 11.6447 20.9972 11.6028 21.0181 11.5565C21.0391 11.5102 21.0498 11.4604 21.0498 11.4101C21.0498 11.3598 21.0391 11.3101 21.0181 11.2638C20.9972 11.2175 20.9665 11.1756 20.928 11.1406C20.8895 11.1056 20.8438 11.0783 20.7938 11.0602C20.7437 11.0421 20.6903 11.0336 20.6367 11.0353Z" fill="black"/>
<path d="M20.6368 14.0582H13.0369C12.9308 14.0582 12.829 14.0977 12.754 14.168C12.679 14.2383 12.6368 14.3337 12.6368 14.4332C12.6368 14.5327 12.679 14.6281 12.754 14.6984C12.829 14.7687 12.9308 14.8082 13.0369 14.8082H20.6368C20.7429 14.8082 20.8446 14.7687 20.9196 14.6984C20.9947 14.6281 21.0368 14.5327 21.0368 14.4332C21.0368 14.3337 20.9947 14.2383 20.9196 14.168C20.8446 14.0977 20.7429 14.0582 20.6368 14.0582Z" fill="black"/>
<path d="M12.6518 16.2999C12.2849 16.115 11.9987 16.1444 11.9987 16.1444C11.68 16.1455 11.3746 16.2647 11.1492 16.476C10.9238 16.6873 10.7967 16.9736 10.7956 17.2724C10.7965 17.5696 10.9228 17.8543 11.147 18.0645C11.3711 18.2746 11.6749 18.393 11.9918 18.3939H12.0348C12.343 18.3938 12.6386 18.2789 12.8566 18.0746C13.0745 17.8703 13.197 17.5932 13.1971 17.3042C13.2232 17.1147 13.1943 16.9221 13.1133 16.7467C13.0046 16.5195 12.9655 16.4583 12.6518 16.2999ZM12.7954 17.2857C12.7951 17.4802 12.7125 17.6667 12.5658 17.8042C12.419 17.9416 12.22 18.0188 12.0125 18.0188H11.9781C11.7705 18.0188 11.5713 17.9415 11.4245 17.8039C11.2777 17.6662 11.1952 17.4795 11.1952 17.2849V17.2535C11.1952 17.0588 11.2777 16.8721 11.4245 16.7345C11.5713 16.5968 11.7705 16.5195 11.9781 16.5195H12.012C12.2197 16.5195 12.4189 16.5968 12.5658 16.7344C12.7127 16.8721 12.7952 17.0588 12.7954 17.2535V17.2857Z" fill="black"/>
</svg>
