<svg width="24" height="24" viewBox="0 0 24 24" fill="none" xmlns="http://www.w3.org/2000/svg">
<path d="M20.1654 6.94101L20.1655 6.94111C20.2283 6.99869 20.2604 7.08001 20.2604 7.1416V22.1951C20.2604 22.3234 20.133 22.5 19.8823 22.5H4.11763C3.867 22.5 3.73956 22.3234 3.73956 22.1951V1.80489C3.73956 1.67658 3.867 1.5 4.11763 1.5H14.0598C14.1736 1.5 14.2773 1.54403 14.3429 1.60429L14.3431 1.60444L20.1654 6.94101ZM15.2759 3.37942L14.4382 2.61197V3.7481V6.33684V6.83684H14.9382H17.7623H19.048L18.1001 5.96821L15.2759 3.37942ZM19.0044 21.8902H19.5044V21.3902V7.94662V7.44662H19.0044H14.0601C13.8095 7.44662 13.6821 7.27003 13.6821 7.14173V2.60974V2.10974H13.1821H4.99569H4.49569V2.60974V21.3902V21.8902H4.99569H19.0044Z" fill="black" stroke="black"/>
<path d="M11.7163 10.7468L12.0798 10.6996V10.7028L12.565 10.7171C12.9249 10.7278 13.4175 10.776 13.8043 10.8993C13.999 10.9614 14.1296 11.0312 14.2033 11.0948C14.2649 11.1479 14.2649 11.1745 14.2649 11.1905V11.1909C14.2649 11.2115 14.2602 11.2595 14.2419 11.3227C14.2241 11.3842 14.1979 11.4445 14.1662 11.4943C14.1037 11.5925 14.0533 11.6085 14.008 11.6085C13.9506 11.6085 13.917 11.5929 13.7077 11.4953C13.6902 11.4872 13.6714 11.4784 13.6513 11.4691C13.4125 11.358 13.0943 11.2295 12.615 11.1957L12.2742 11.1716V11.1281L12.1026 11.1596L12.0798 11.1579V11.1637L11.6841 11.2362C11.045 11.3533 10.4929 11.7207 10.4929 12.3547C10.4929 12.7089 10.6765 12.9701 10.8914 13.1473C11.0928 13.3135 11.3499 13.4318 11.5941 13.5261L12.2742 13.7885V13.752L12.4178 13.8012C12.9763 13.9925 13.5006 14.1962 13.8875 14.5041C14.2477 14.7907 14.4847 15.1628 14.4847 15.7452C14.4847 16.3114 14.2899 16.7361 13.9698 17.0466C13.6409 17.3654 13.1462 17.5948 12.5062 17.6901L12.1431 17.7441L11.6672 17.7296C11.0038 17.7093 10.4187 17.5416 10.0154 17.317C9.57752 17.0732 9.49078 16.8504 9.49078 16.7747C9.49078 16.7227 9.52657 16.5944 9.62274 16.4739C9.71832 16.3541 9.7964 16.3347 9.82089 16.3347C9.83909 16.3347 9.88005 16.3399 9.96811 16.3851C10.0498 16.427 10.134 16.4821 10.2537 16.5605C10.2736 16.5736 10.2946 16.5873 10.3167 16.6017C10.6071 16.7913 11.011 17.0436 11.5725 17.134L11.9577 17.1961V17.2485L12.097 17.2185L12.152 17.2273V17.2066L12.5631 17.1179C12.8151 17.0636 13.0898 16.9628 13.3104 16.7744C13.5474 16.572 13.7024 16.2828 13.7024 15.9242C13.7024 15.2139 13.0978 14.862 12.6564 14.6709L11.9577 14.3683V14.4047L11.8166 14.3555C11.2423 14.1552 10.7063 13.959 10.3078 13.6636C9.93823 13.3897 9.71053 13.0496 9.71053 12.5225C9.71053 11.9659 9.92704 11.5799 10.2638 11.3027C10.6171 11.0119 11.128 10.8231 11.7163 10.7468Z" fill="black" stroke="black"/>
<path d="M10.9251 6.83684C11.1757 6.83684 11.3031 7.01342 11.3031 7.14173C11.3031 7.2701 11.1757 7.44661 10.9251 7.44661H7.25264C7.00201 7.44661 6.87457 7.27003 6.87457 7.14173C6.87457 7.01342 7.00201 6.83684 7.25264 6.83684H10.9251Z" fill="black" stroke="black"/>
</svg>
