<svg width="117" height="117" viewBox="0 0 117 117" fill="none" xmlns="http://www.w3.org/2000/svg">
<g clip-path="url(#clip0)">
<path d="M99.5999 29.9888L99.6 29.9889C100.29 30.6787 100.707 31.6836 100.707 32.6622V112.72C100.707 114.808 99.0144 116.5 96.9265 116.5H20.0735C17.9856 116.5 16.2929 114.808 16.2929 112.72V4.28055C16.2929 2.1927 17.9856 0.5 20.0735 0.5H68.5417C69.5533 0.5 70.5249 0.916025 71.216 1.60772L71.2162 1.60788C78.0834 8.47472 91.5062 21.896 97.0823 27.4716L99.5999 29.9888ZM73.177 14.2613L72.3236 13.4084V14.6149V28.3823V28.8823H72.8236H86.5914H87.7988L86.9449 28.0287C86.2202 27.3042 82.9513 24.0353 79.7766 20.8606C76.6117 17.6957 73.5405 14.6245 73.177 14.2613ZM92.6464 108.939H93.1464V108.439V36.9434V36.4434H92.6464H68.5433C66.4554 36.4434 64.7627 34.7507 64.7627 32.6629V8.56088V8.06088H64.2627H24.3541H23.8541V8.56088V108.439V108.939H24.3541H92.6464Z" fill="black" stroke="black"/>
<path d="M56.8736 49.6931L57.3035 49.6323V49.198V47.5317C57.3035 47.3141 57.4299 47.0479 57.741 46.8175C58.0481 46.5901 58.5065 46.4248 59.0651 46.4248C59.5234 46.4248 59.9893 46.584 60.3328 46.8251C60.6895 47.0754 60.8267 47.3448 60.8267 47.5317V49.0196V49.5037L61.3106 49.5193C63.1349 49.5782 65.74 49.8433 67.8723 50.5854C70.0462 51.3418 71.4792 52.495 71.4792 54.1971C71.4792 54.9152 71.2332 56.0477 70.6845 56.9874C70.1391 57.9214 69.3539 58.577 68.2894 58.577C67.5638 58.577 66.9835 58.2776 66.1364 57.8407C66.0131 57.7771 65.8843 57.7106 65.7485 57.6417C64.7049 57.1122 63.389 56.5322 61.3651 56.3765L60.8267 56.3351V56.875V65.5637V65.9106L61.1518 66.032C63.8612 67.0442 66.7133 68.2235 68.8918 70.1144C71.045 71.9833 72.5505 74.5569 72.5505 78.4179C72.5505 81.9933 71.4002 84.8269 69.4363 86.9042C67.467 88.9872 64.6451 90.3457 61.2466 90.8976L60.8267 90.9658V91.3912V93.1167C60.8267 93.3037 60.6895 93.5731 60.3328 93.8234C59.9893 94.0644 59.5235 94.2236 59.0651 94.2236C58.5065 94.2236 58.048 94.0583 57.7409 93.8308C57.4298 93.6004 57.3035 93.3342 57.3035 93.1167V91.6291V91.1454L56.8201 91.1293C53.3258 91.0129 50.168 90.0515 47.8986 88.6727C45.605 87.2791 44.3302 85.5366 44.3302 83.8929C44.3302 83.0071 44.73 81.8584 45.4092 80.9297C46.0923 79.9958 46.9729 79.3939 47.877 79.3939C48.3819 79.3939 48.89 79.5705 49.4628 79.8909C49.9598 80.1689 50.4681 80.5326 51.0434 80.9443C51.139 81.0128 51.2366 81.0825 51.3362 81.1535C52.7129 82.1336 54.3974 83.2636 56.717 83.671L57.3035 83.774V83.1785V73.5377V73.1929L56.9813 73.0704C54.2317 72.0245 51.3328 70.889 49.1137 69.095C46.9236 67.3244 45.4015 64.9165 45.4015 61.2788C45.4015 57.6378 46.7426 54.9774 48.8211 53.1109C50.9132 51.2323 53.7854 50.1301 56.8736 49.6931ZM57.2052 64.596L57.8992 64.8882V64.1352V57.0537V56.4439L57.3013 56.5634C54.5013 57.123 53.0906 58.6215 53.0906 60.3862C53.0906 61.4237 53.5648 62.2495 54.3123 62.9223C55.0454 63.5821 56.0603 64.114 57.2052 64.596ZM60.2315 83.1189V83.7502L60.846 83.6056C61.9075 83.3558 62.9061 82.9246 63.6463 82.235C64.4005 81.5324 64.8619 80.5825 64.8619 79.3699C64.8619 77.0876 63.1102 75.7151 60.945 74.6923L60.2315 74.3552V75.1444V83.1189Z" fill="black" stroke="black"/>
<path d="M53.2597 28.8823C55.3475 28.8823 57.0402 30.575 57.0402 32.6629C57.0402 34.7512 55.3478 36.4434 53.2597 36.4434H35.3566C33.2688 36.4434 31.5761 34.7507 31.5761 32.6629C31.5761 30.575 33.2688 28.8823 35.3566 28.8823H53.2597Z" fill="black" stroke="black"/>
</g>
<defs>
<clipPath id="clip0">
<rect width="117" height="117" fill="white"/>
</clipPath>
</defs>
</svg>
