<svg width="20" height="20" viewBox="0 0 20 20" fill="none" xmlns="http://www.w3.org/2000/svg">
<g clip-path="url(#clip0)">
<path d="M16.7325 5.41941L16.7326 5.41952C16.7728 5.45967 16.8003 5.52595 16.8003 5.58328V19.2683C16.8003 19.3963 16.6966 19.5 16.5686 19.5H3.43136C3.3034 19.5 3.19965 19.3963 3.19965 19.2683V0.731719C3.19965 0.60376 3.30341 0.5 3.43136 0.5H11.7165C11.7777 0.5 11.8388 0.526131 11.8804 0.567813L11.8806 0.567977L16.7325 5.41941ZM12.8019 2.14462L11.9485 1.29171V2.49828V4.85168V5.35168H12.4485H14.8019H16.0093L15.1554 4.49807L12.8019 2.14462ZM15.837 19.0366H16.337V18.5366V6.31512V5.81512H15.837H11.7168C11.5888 5.81512 11.4851 5.71136 11.4851 5.5834V1.4634V0.963398H10.9851H4.16308H3.66308V1.4634V18.5366V19.0366H4.16308H15.837Z" fill="black" stroke="black"/>
<path d="M9.78008 8.90499L10.0563 8.8659L10.4671 8.87915C10.7619 8.88866 11.159 8.93179 11.4659 9.03857C11.6196 9.09206 11.7153 9.14965 11.7657 9.19702C11.8042 9.23325 11.8042 9.24927 11.8042 9.26399V9.26445C11.8042 9.28284 11.8003 9.32586 11.7853 9.38245C11.7706 9.43766 11.7494 9.49033 11.7249 9.5324C11.7002 9.57457 11.68 9.59294 11.6722 9.59863C11.6562 9.59865 11.6514 9.59767 11.4266 9.48361C11.2218 9.37968 10.942 9.25604 10.5216 9.2237L10.3119 9.20757V9.14296L10.0784 9.18961L9.98323 9.18229V9.20864L9.71388 9.26247C9.13415 9.37832 8.66081 9.74187 8.66081 10.3224C8.66081 10.6446 8.81437 10.8908 9.00687 11.0641C9.18489 11.2243 9.41039 11.3368 9.61784 11.4241L10.3119 11.7163V11.6772C10.7749 11.8503 11.1957 12.0302 11.5047 12.2984C11.7892 12.5454 11.9873 12.874 11.9873 13.4048C11.9873 13.9212 11.8239 14.3003 11.5683 14.5706C11.3074 14.8466 10.9153 15.0457 10.4031 15.1289L10.1118 15.1762L9.72667 15.1634C9.19239 15.1456 8.72352 14.9982 8.40307 14.8035C8.05829 14.594 7.99237 14.4056 7.99237 14.3407C7.99237 14.3238 7.99698 14.285 8.01658 14.2305C8.03557 14.1777 8.06363 14.1243 8.09688 14.0789C8.14258 14.0164 8.17585 13.9952 8.18919 13.9884C8.19986 13.9919 8.22013 14 8.25282 14.0183C8.31613 14.0538 8.38174 14.1006 8.48201 14.1722C8.49867 14.1842 8.51629 14.1967 8.53502 14.2101C8.77695 14.3823 9.12936 14.6242 9.62352 14.711L9.88147 14.7563V14.8397L10.0843 14.792L10.21 14.814V14.7624L10.496 14.6951C10.7187 14.6426 10.9649 14.5445 11.1623 14.3606C11.3737 14.1636 11.5021 13.8921 11.5021 13.5675C11.5021 12.9134 10.9839 12.5768 10.595 12.3931L9.88147 12.056V12.1008C9.40397 11.9191 8.97431 11.746 8.65615 11.4887C8.36548 11.2538 8.1755 10.9551 8.1755 10.475C8.1755 9.96703 8.35712 9.62549 8.62247 9.38722C8.90138 9.13677 9.30677 8.97196 9.78008 8.90499Z" fill="black" stroke="black"/>
<path d="M9.10421 5.35168C9.23217 5.35168 9.33593 5.45544 9.33593 5.5834C9.33593 5.71142 9.23222 5.81512 9.10421 5.81512H6.04385C5.91589 5.81512 5.81213 5.71136 5.81213 5.5834C5.81213 5.45544 5.91589 5.35168 6.04385 5.35168H9.10421Z" fill="black" stroke="black"/>
</g>
<defs>
<clipPath id="clip0">
<rect width="20" height="20" fill="white"/>
</clipPath>
</defs>
</svg>
