<svg width="24" height="24" viewBox="0 0 24 24" fill="none" xmlns="http://www.w3.org/2000/svg">
<path d="M21.3548 12.551C21.3548 8.08923 18.3399 4.19811 14.0174 3.08828C13.6041 2.98045 13.1817 3.23207 13.0784 3.64544C12.9705 4.05882 13.2221 4.48118 13.6355 4.58452C17.2705 5.51462 19.8092 8.79466 19.8092 12.551C19.8092 15.8625 17.8367 18.7965 14.8846 20.0861L15.599 18.4236C15.7653 18.0327 15.5856 17.5789 15.1947 17.4081C14.8037 17.2419 14.3499 17.4216 14.1792 17.8125L12.7863 21.0566C12.62 21.4475 12.7998 21.9014 13.1907 22.0721L16.4348 23.465C16.92 23.6357 17.3244 23.3527 17.4502 23.0606C17.6165 22.6697 17.4368 22.2159 17.0459 22.0451L15.635 21.4386C19.0723 19.8839 21.3548 16.4331 21.3548 12.551Z" fill="black"/>
<path d="M9.52872 20.5175C5.89371 19.5829 3.35505 16.3073 3.35505 12.551C3.35505 9.28443 5.27365 6.38631 8.15829 5.0698L7.4888 6.62445C7.32255 7.01536 7.4933 7.48715 7.89319 7.63992C8.36049 7.81515 8.75589 7.60397 8.90866 7.23553L10.3016 3.98694C10.4363 3.67241 10.4319 3.20062 9.89716 2.97147L6.65307 1.57858C6.26216 1.41233 5.80834 1.59206 5.6376 1.98297C5.47135 2.37387 5.65108 2.82769 6.04199 2.99843L7.55171 3.64545C4.10092 5.2046 1.80939 8.65987 1.80939 12.551C1.80939 17.0128 4.82882 20.8994 9.1468 22.0137C9.66801 22.1485 9.99601 21.807 10.0859 21.4565C10.1892 21.0432 9.94209 20.6253 9.52872 20.5175Z" fill="black"/>
<path d="M13.4019 15.4626C13.7973 15.0492 13.995 14.528 13.995 13.9079C13.995 13.6249 13.9456 13.3643 13.8512 13.1216C13.7569 12.879 13.6221 12.6723 13.4468 12.4926C13.2716 12.3173 13.0424 12.1691 12.7639 12.0433C12.6156 11.9804 12.319 11.8905 11.8652 11.7782V9.19906C12.1573 9.25747 12.3864 9.38328 12.5572 9.572C12.7234 9.76071 12.8358 10.0303 12.8897 10.3808L13.8153 10.2415C13.7344 9.67534 13.5007 9.22602 13.1098 8.90251C12.8043 8.6464 12.3909 8.49363 11.8697 8.4442V8.01735H11.3395V8.4442C10.7464 8.50262 10.2971 8.66886 9.99604 8.93396C9.54222 9.32937 9.31756 9.84609 9.31756 10.4841C9.31756 10.8436 9.39395 11.1626 9.55121 11.4457C9.70398 11.7287 9.92415 11.9489 10.2117 12.1062C10.5981 12.3218 10.9756 12.4656 11.344 12.533V15.3862C10.9935 15.3503 10.688 15.1705 10.4364 14.8515C10.2611 14.6269 10.1353 14.2719 10.0679 13.7911L9.16479 13.9619C9.19625 14.4247 9.31756 14.8201 9.51976 15.1436C9.72195 15.4671 9.96459 15.7007 10.2477 15.8445C10.5262 15.9883 10.8947 16.0872 11.3395 16.1456V17.0397H11.8697V16.1321C12.4988 16.1006 13.011 15.876 13.4019 15.4626ZM11.344 11.6658C10.9351 11.5445 10.6476 11.3783 10.4768 11.1716C10.3061 10.9649 10.2207 10.7088 10.2207 10.4032C10.2207 10.0932 10.3196 9.82811 10.5217 9.60345C10.7239 9.37879 10.998 9.2395 11.344 9.18558V11.6658ZM12.7324 14.9279C12.5033 15.1885 12.2157 15.3368 11.8697 15.3817V12.6543C12.3505 12.8116 12.674 12.9868 12.8358 13.1845C12.9975 13.3822 13.0784 13.6428 13.0784 13.9709C13.0739 14.3483 12.9616 14.6718 12.7324 14.9279Z" fill="black"/>
</svg>
