<svg width="20" height="20" viewBox="0 0 20 20" fill="none" xmlns="http://www.w3.org/2000/svg">
<path d="M18.5 10.0234C18.5 6.14453 15.8789 2.76172 12.1211 1.79687C11.7617 1.70312 11.3945 1.92187 11.3047 2.28125C11.2109 2.64062 11.4297 3.00781 11.7891 3.09766C14.9492 3.90625 17.1563 6.75781 17.1563 10.0234C17.1563 12.9023 15.4414 15.4531 12.875 16.5742L13.4961 15.1289C13.6406 14.7891 13.4844 14.3945 13.1445 14.2461C12.8047 14.1016 12.4102 14.2578 12.2617 14.5977L11.0508 17.418C10.9063 17.7578 11.0625 18.1523 11.4023 18.3008L14.2227 19.5117C14.6445 19.6602 14.9961 19.4141 15.1055 19.1602C15.25 18.8203 15.0938 18.4258 14.7539 18.2773L13.5273 17.75C16.5156 16.3984 18.5 13.3984 18.5 10.0234Z" fill="black"/>
<path d="M8.21875 16.9492C5.05859 16.1367 2.85156 13.2891 2.85156 10.0234C2.85156 7.1836 4.51953 4.66407 7.02734 3.51954L6.44531 4.8711C6.30078 5.21094 6.44922 5.6211 6.79688 5.75391C7.20312 5.90626 7.54688 5.72266 7.67969 5.40235L8.89062 2.57813C9.00781 2.30469 9.00391 1.89454 8.53906 1.69532L5.71875 0.484381C5.37891 0.33985 4.98438 0.4961 4.83594 0.835943C4.69141 1.17579 4.84766 1.57032 5.1875 1.71876L6.5 2.28126C3.5 3.63672 1.50781 6.64063 1.50781 10.0234C1.50781 13.9023 4.13281 17.2813 7.88672 18.25C8.33984 18.3672 8.625 18.0703 8.70313 17.7656C8.79297 17.4063 8.57812 17.043 8.21875 16.9492Z" fill="black"/>
<path d="M11.5859 12.5547C11.9297 12.1953 12.1016 11.7422 12.1016 11.2031C12.1016 10.957 12.0586 10.7305 11.9766 10.5195C11.8945 10.3086 11.7773 10.1289 11.625 9.97267C11.4727 9.82033 11.2734 9.69142 11.0313 9.58205C10.9023 9.52736 10.6445 9.44923 10.25 9.35158V7.10939C10.5039 7.16017 10.7031 7.26955 10.8516 7.43361C10.9961 7.59767 11.0938 7.83205 11.1406 8.13673L11.9453 8.01564C11.875 7.52345 11.6719 7.13283 11.332 6.85158C11.0664 6.62892 10.707 6.49611 10.2539 6.45314V6.08205H9.79297V6.45314C9.27735 6.50392 8.88672 6.64845 8.625 6.87892C8.23047 7.22267 8.03516 7.67189 8.03516 8.22658C8.03516 8.53908 8.10156 8.81642 8.23828 9.06252C8.37109 9.30861 8.5625 9.50002 8.8125 9.63673C9.14844 9.82423 9.47656 9.94923 9.79688 10.0078V12.4883C9.49219 12.457 9.22656 12.3008 9.00781 12.0235C8.85547 11.8281 8.74609 11.5195 8.6875 11.1016L7.90234 11.25C7.92969 11.6524 8.03516 11.9961 8.21094 12.2774C8.38672 12.5586 8.59766 12.7617 8.84375 12.8867C9.08594 13.0117 9.40625 13.0977 9.79297 13.1485V13.9258H10.2539V13.1367C10.8008 13.1094 11.2461 12.9141 11.5859 12.5547ZM9.79688 9.25392C9.44141 9.14845 9.19141 9.00392 9.04297 8.82423C8.89453 8.64455 8.82031 8.42189 8.82031 8.15627C8.82031 7.88673 8.90625 7.65627 9.08203 7.46095C9.25781 7.26564 9.4961 7.14455 9.79688 7.09767V9.25392ZM11.0039 12.0899C10.8047 12.3164 10.5547 12.4453 10.2539 12.4844V10.1133C10.6719 10.25 10.9531 10.4024 11.0938 10.5742C11.2344 10.7461 11.3047 10.9727 11.3047 11.2578C11.3008 11.586 11.2031 11.8672 11.0039 12.0899Z" fill="black"/>
</svg>
