<svg width="127" height="127" viewBox="0 0 127 127" fill="none" xmlns="http://www.w3.org/2000/svg">
<path d="M117.475 63.6488C117.475 39.0178 100.831 17.5369 76.9689 11.4102C74.6869 10.8148 72.3553 12.2039 71.7848 14.4859C71.1894 16.768 72.5785 19.0996 74.8605 19.6701C94.9275 24.8047 108.942 42.9121 108.942 63.6488C108.942 81.9299 98.0529 98.1273 81.7562 105.246L85.7002 96.0686C86.618 93.9105 85.6258 91.4053 83.4678 90.4627C81.3098 89.5449 78.8045 90.5371 77.8619 92.6951L70.1724 110.604C69.2547 112.762 70.2469 115.267 72.4049 116.21L90.3139 123.899C92.9928 124.842 95.2252 123.279 95.9197 121.667C96.8375 119.509 95.8453 117.004 93.6873 116.061L85.8986 112.712C104.874 104.13 117.475 85.0801 117.475 63.6488Z" fill="black"/>
<path d="M52.189 107.628C32.1221 102.468 18.1074 84.3855 18.1074 63.6488C18.1074 45.6158 28.699 29.6168 44.6236 22.349L40.9277 30.9314C40.01 33.0894 40.9525 35.6939 43.1601 36.5373C45.7398 37.5047 47.9226 36.3389 48.766 34.3049L56.4555 16.3711C57.1996 14.6348 57.1748 12.0303 54.223 10.7652L36.3141 3.07578C34.156 2.15801 31.6508 3.15019 30.7082 5.3082C29.7904 7.46621 30.7826 9.97148 32.9406 10.9141L41.275 14.4859C22.225 23.0932 9.5746 42.168 9.5746 63.6488C9.5746 88.2799 26.2433 109.736 50.0807 115.887C52.958 116.632 54.7687 114.746 55.2648 112.812C55.8353 110.53 54.4711 108.223 52.189 107.628Z" fill="black"/>
<path d="M73.5707 79.7223C75.7535 77.4402 76.8449 74.5629 76.8449 71.1398C76.8449 69.5771 76.5721 68.1385 76.0512 66.799C75.5303 65.4596 74.7861 64.3185 73.8188 63.3264C72.8514 62.359 71.5863 61.5404 70.0484 60.8459C69.2299 60.4986 67.5928 60.0025 65.0875 59.3824V45.1445C66.6998 45.467 67.9648 46.1615 68.9074 47.2033C69.8252 48.2451 70.4453 49.7334 70.743 51.6682L75.8527 50.8992C75.4062 47.7738 74.1164 45.2934 71.9584 43.5074C70.2717 42.0936 67.9896 41.2502 65.1123 40.9773V38.6209H62.1853V40.9773C58.9111 41.2998 56.4307 42.2176 54.7687 43.6811C52.2635 45.8639 51.0232 48.7164 51.0232 52.2387C51.0232 54.223 51.4449 55.9842 52.3131 57.5469C53.1564 59.1096 54.3719 60.325 55.9594 61.1932C58.0926 62.3838 60.1762 63.1775 62.2102 63.5496V79.3006C60.2754 79.1021 58.5887 78.1099 57.1996 76.3488C56.2322 75.1086 55.5377 73.149 55.1656 70.4949L50.1799 71.4375C50.3535 73.9924 51.0232 76.1752 52.1394 77.9611C53.2557 79.7471 54.5951 81.0369 56.1578 81.8307C57.6957 82.6244 59.7297 83.1701 62.1853 83.4926V88.4287H65.1123V83.4181C68.585 83.2445 71.4127 82.0043 73.5707 79.7223ZM62.2102 58.7623C59.9529 58.0926 58.3654 57.1748 57.4228 56.0338C56.4803 54.8928 56.009 53.4789 56.009 51.7922C56.009 50.0807 56.5547 48.6172 57.6709 47.3769C58.7871 46.1367 60.3002 45.3678 62.2102 45.0701V58.7623ZM69.8748 76.7705C68.6098 78.2092 67.0223 79.0277 65.1123 79.2758V64.2193C67.7664 65.0875 69.5523 66.0549 70.4453 67.1463C71.3383 68.2377 71.7848 69.6764 71.7848 71.4871C71.76 73.5707 71.1398 75.3566 69.8748 76.7705Z" fill="black"/>
</svg>
