<svg width="110" height="110" viewBox="0 0 110 110" fill="none" xmlns="http://www.w3.org/2000/svg">
<path d="M46.9967 21.4272C46.1119 22.3098 46.1119 23.7405 46.9967 24.6275C47.8841 25.5123 49.3122 25.5123 50.197 24.6275C52.8452 21.9837 57.1548 21.9837 59.8026 24.6275C60.2439 25.0688 60.8235 25.2907 61.4027 25.2907C61.982 25.2907 62.5616 25.0688 63.0029 24.6275C63.8902 23.7401 63.8902 22.3098 63.0029 21.4272C58.592 17.016 51.4079 17.016 46.9967 21.4272Z" fill="black"/>
<path d="M69.402 18.227C70.2893 17.3421 70.2893 15.9115 69.402 15.0267C65.5564 11.1789 60.4391 9.05827 54.9978 9.05827C49.5565 9.05827 44.4392 11.1789 40.5958 15.0267C39.7085 15.9115 39.7085 17.3444 40.5958 18.227C41.0349 18.6683 41.6142 18.8902 42.196 18.8902C42.7756 18.8902 43.3526 18.6683 43.7961 18.227C46.7862 15.2347 50.7674 13.5847 54.9974 13.5847C59.23 13.5847 63.209 15.2347 66.2013 18.227C67.0887 19.1118 68.5146 19.1118 69.402 18.227Z" fill="black"/>
<path d="M75.8051 8.62357C70.2482 3.06454 62.8583 0 55 0C47.1416 0 39.7517 3.06454 34.1949 8.62357C33.3101 9.51094 33.3101 10.9368 34.1949 11.8238C35.0823 12.7112 36.5104 12.7112 37.3952 11.8238C42.0984 7.12064 48.35 4.52895 54.9996 4.52895C61.6492 4.52895 67.9031 7.12064 72.604 11.8238C73.0454 12.2651 73.625 12.4871 74.2042 12.4871C74.7834 12.4871 75.363 12.2651 75.8043 11.8238C76.6899 10.9365 76.6899 9.51057 75.8051 8.62357Z" fill="black"/>
<path d="M65.2486 28.5185H42.6149C37.3728 28.5185 33.5614 32.3299 33.5614 37.572V87.3663C33.5614 97.8321 42.4608 110 53.9318 110C65.4049 110 74.3021 97.8321 74.3021 87.3663V37.572C74.3021 32.3299 70.4904 28.5185 65.2486 28.5185ZM69.7754 87.3663C69.7754 95.5665 62.709 105.473 53.9318 105.473C45.1545 105.473 38.0882 95.5665 38.0882 87.3663V37.572C38.0882 34.8219 39.8647 33.0453 42.6149 33.0453H65.2486C67.9988 33.0453 69.7754 34.8219 69.7754 37.572V87.3663Z" fill="black"/>
<path d="M53.9318 42.0988C50.1882 42.0988 47.1394 45.1453 47.1394 48.8889C47.1394 52.6325 50.1882 55.679 53.9318 55.679C57.6775 55.679 60.7219 52.6325 60.7219 48.8889C60.7219 45.1453 57.6753 42.0988 53.9318 42.0988ZM53.9318 51.1523C52.6823 51.1523 51.6662 50.1383 51.6662 48.8889C51.6662 47.6395 52.6823 46.6255 53.9318 46.6255C55.1812 46.6255 56.1951 47.6395 56.1951 48.8889C56.1951 50.1383 55.1812 51.1523 53.9318 51.1523Z" fill="black"/>
</svg>
