<svg width="24" height="24" viewBox="0 0 24 24" fill="none" xmlns="http://www.w3.org/2000/svg">
<path d="M10.2539 5.28543C10.0608 5.46195 10.0608 5.74808 10.2539 5.92548C10.4475 6.10244 10.759 6.10244 10.9521 5.92548C11.5299 5.39673 12.4702 5.39673 13.0479 5.92548C13.1441 6.01374 13.2706 6.05813 13.397 6.05813C13.5234 6.05813 13.6498 6.01374 13.7461 5.92548C13.9397 5.74801 13.9397 5.46195 13.7461 5.28543C12.7837 4.40319 11.2163 4.40319 10.2539 5.28543Z" fill="black"/>
<path d="M15.1422 4.64538C15.3358 4.46842 15.3358 4.18229 15.1422 4.00533C14.3032 3.23578 13.1867 2.81165 11.9995 2.81165C10.8123 2.81165 9.69579 3.23578 8.85724 4.00533C8.66363 4.18229 8.66363 4.46886 8.85724 4.64538C8.95305 4.73364 9.07943 4.77803 9.20636 4.77803C9.33282 4.77803 9.45872 4.73364 9.55548 4.64538C10.2079 4.04693 11.0765 3.71692 11.9994 3.71692C12.9229 3.71692 13.791 4.04693 14.4439 4.64538C14.6375 4.82234 14.9486 4.82234 15.1422 4.64538Z" fill="black"/>
<path d="M16.5393 2.72471C15.3269 1.61291 13.7145 1 12 1C10.2854 1 8.6731 1.61291 7.4607 2.72471C7.26766 2.90219 7.26766 3.18737 7.4607 3.36477C7.65431 3.54224 7.9659 3.54224 8.15895 3.36477C9.1851 2.42413 10.5491 1.90579 11.9999 1.90579C13.4507 1.90579 14.8152 2.42413 15.8409 3.36477C15.9372 3.45303 16.0636 3.49742 16.19 3.49742C16.3164 3.49742 16.4428 3.45303 16.5391 3.36477C16.7323 3.18729 16.7323 2.90211 16.5393 2.72471Z" fill="black"/>
<path d="M14.236 6.70369H9.29776C8.15403 6.70369 7.32245 7.46597 7.32245 8.51439V18.4732C7.32245 20.5664 9.26414 23 11.7669 23C14.2701 23 16.2113 20.5664 16.2113 18.4732V8.51439C16.2113 7.46597 15.3797 6.70369 14.236 6.70369ZM15.2237 18.4732C15.2237 20.1133 13.6819 22.0946 11.7669 22.0946C9.85185 22.0946 8.3101 20.1133 8.3101 18.4732V8.51439C8.3101 7.96436 8.69772 7.60904 9.29776 7.60904H14.236C14.8361 7.60904 15.2237 7.96436 15.2237 8.51439V18.4732Z" fill="black"/>
<path d="M11.7669 9.41975C10.9502 9.41975 10.285 10.0291 10.285 10.7778C10.285 11.5265 10.9502 12.1358 11.7669 12.1358C12.5842 12.1358 13.2484 11.5265 13.2484 10.7778C13.2484 10.0291 12.5837 9.41975 11.7669 9.41975ZM11.7669 11.2305C11.4943 11.2305 11.2726 11.0277 11.2726 10.7778C11.2726 10.5279 11.4943 10.3251 11.7669 10.3251C12.0395 10.3251 12.2608 10.5279 12.2608 10.7778C12.2608 11.0277 12.0395 11.2305 11.7669 11.2305Z" fill="black"/>
</svg>
