<svg width="20" height="20" viewBox="0 0 20 20" fill="none" xmlns="http://www.w3.org/2000/svg">
<path d="M8.54491 3.89585C8.38404 4.05633 8.38404 4.31645 8.54491 4.47772C8.70625 4.6386 8.9659 4.6386 9.12678 4.47772C9.60827 3.99703 10.3918 3.99703 10.8732 4.47772C10.9535 4.55796 11.0589 4.59831 11.1642 4.59831C11.2695 4.59831 11.3749 4.55796 11.4551 4.47772C11.6165 4.31638 11.6165 4.05633 11.4551 3.89585C10.6531 3.09382 9.34695 3.09382 8.54491 3.89585Z" fill="black"/>
<path d="M12.6186 3.31399C12.7799 3.15312 12.7799 2.893 12.6186 2.73212C11.9194 2.03253 10.9889 1.64696 9.99962 1.64696C9.01029 1.64696 8.07987 2.03253 7.38108 2.73212C7.21974 2.893 7.21974 3.15352 7.38108 3.31399C7.46091 3.39423 7.56623 3.43458 7.67201 3.43458C7.77739 3.43458 7.88231 3.39423 7.96294 3.31399C8.5066 2.76994 9.23046 2.46994 9.99955 2.46994C10.7691 2.46994 11.4926 2.76994 12.0366 3.31399C12.198 3.47486 12.4572 3.47486 12.6186 3.31399Z" fill="black"/>
<path d="M13.7828 1.56792C12.7724 0.55719 11.4288 0 10 0C8.57122 0 7.22761 0.55719 6.21727 1.56792C6.0564 1.72926 6.0564 1.98851 6.21727 2.14979C6.37861 2.31113 6.63827 2.31113 6.79914 2.14979C7.65427 1.29466 8.79092 0.823445 9.99995 0.823445C11.209 0.823445 12.346 1.29466 13.2008 2.14979C13.281 2.23003 13.3864 2.27038 13.4917 2.27038C13.597 2.27038 13.7024 2.23003 13.7826 2.14979C13.9436 1.98845 13.9436 1.7292 13.7828 1.56792Z" fill="black"/>
<path d="M11.8634 5.18518H7.74814C6.79504 5.18518 6.10205 5.87817 6.10205 6.83127V15.8848C6.10205 17.7876 7.72013 20 9.80575 20C11.8918 20 13.5095 17.7876 13.5095 15.8848V6.83127C13.5095 5.87817 12.8164 5.18518 11.8634 5.18518ZM12.6864 15.8848C12.6864 17.3757 11.4016 19.177 9.80575 19.177C8.20989 19.177 6.9251 17.3757 6.9251 15.8848V6.83127C6.9251 6.33124 7.24811 6.00823 7.74814 6.00823H11.8634C12.3634 6.00823 12.6864 6.33124 12.6864 6.83127V15.8848Z" fill="black"/>
<path d="M9.80577 7.65431C9.12512 7.65431 8.5708 8.20823 8.5708 8.88888C8.5708 9.56952 9.12512 10.1234 9.80577 10.1234C10.4868 10.1234 11.0403 9.56952 11.0403 8.88888C11.0403 8.20823 10.4864 7.65431 9.80577 7.65431ZM9.80577 9.3004C9.5786 9.3004 9.39385 9.11605 9.39385 8.88888C9.39385 8.66171 9.5786 8.47736 9.80577 8.47736C10.0329 8.47736 10.2173 8.66171 10.2173 8.88888C10.2173 9.11605 10.0329 9.3004 9.80577 9.3004Z" fill="black"/>
</svg>
