<svg width="120" height="107" viewBox="0 0 120 107" fill="none" xmlns="http://www.w3.org/2000/svg">
<path d="M114.511 25.9314C113.203 20.9889 109.348 17.0964 104.452 15.7754C95.5794 13.375 60 13.375 60 13.375C60 13.375 24.4208 13.375 15.5477 15.7754C10.6525 17.0966 6.7971 20.9889 5.48855 25.9314C3.11105 34.8899 3.11105 53.5811 3.11105 53.5811C3.11105 53.5811 3.11105 72.2722 5.48855 81.2308C6.7971 86.1732 10.6525 89.9036 15.5477 91.2246C24.4208 93.625 60 93.625 60 93.625C60 93.625 95.5792 93.625 104.452 91.2246C109.348 89.9036 113.203 86.1732 114.511 81.2308C116.889 72.2722 116.889 53.5811 116.889 53.5811C116.889 53.5811 116.889 34.8899 114.511 25.9314ZM48.3636 70.5512V36.6109L78.1009 53.5815L48.3636 70.5512Z" fill="black"/>
</svg>
