<svg width="20" height="18" viewBox="0 0 20 18" fill="none" xmlns="http://www.w3.org/2000/svg">
<path d="M19.0852 4.32191C18.8671 3.49816 18.2246 2.8494 17.4087 2.62924C15.9299 2.22917 9.99999 2.22917 9.99999 2.22917C9.99999 2.22917 4.07013 2.22917 2.59127 2.62924C1.7754 2.84944 1.13283 3.49816 0.914744 4.32191C0.518494 5.815 0.518494 8.93019 0.518494 8.93019C0.518494 8.93019 0.518494 12.0454 0.914744 13.5385C1.13283 14.3622 1.7754 14.9839 2.59127 15.2041C4.07013 15.6042 9.99999 15.6042 9.99999 15.6042C9.99999 15.6042 15.9298 15.6042 17.4087 15.2041C18.2246 14.9839 18.8671 14.3622 19.0852 13.5385C19.4815 12.0454 19.4815 8.93019 19.4815 8.93019C19.4815 8.93019 19.4815 5.815 19.0852 4.32191ZM8.06058 11.7585V6.10183L13.0168 8.93026L8.06058 11.7585Z" fill="black"/>
</svg>
