<svg width="24" height="24" viewBox="0 0 24 24" fill="none" xmlns="http://www.w3.org/2000/svg">
<path d="M22.5403 5.72287C22.2873 4.65109 21.5418 3.80699 20.5953 3.52053C18.8796 3 12 3 12 3C12 3 5.12044 3 3.40474 3.52053C2.45821 3.80703 1.71273 4.65109 1.45971 5.72287C1 7.66554 1 11.7187 1 11.7187C1 11.7187 1 15.7719 1.45971 17.7146C1.71273 18.7864 2.45821 19.5953 3.40474 19.8818C5.12044 20.4023 12 20.4023 12 20.4023C12 20.4023 18.8796 20.4023 20.5953 19.8818C21.5418 19.5953 22.2873 18.7864 22.5403 17.7146C23 15.7719 23 11.7187 23 11.7187C23 11.7187 23 7.66554 22.5403 5.72287ZM9.74998 15.3987V8.03874L15.5 11.7188L9.74998 15.3987Z" fill="black"/>
</svg>
