<svg width="23" height="20" viewBox="0 0 23 20" fill="none" xmlns="http://www.w3.org/2000/svg">
<path d="M21.404 4.84699C21.1594 3.92316 20.4388 3.19559 19.5238 2.94867C17.8653 2.5 11.2149 2.5 11.2149 2.5C11.2149 2.5 4.56462 2.5 2.90609 2.94867C1.9911 3.19563 1.27046 3.92316 1.02587 4.84699C0.581482 6.52148 0.581482 10.0152 0.581482 10.0152C0.581482 10.0152 0.581482 13.5088 1.02587 15.1833C1.27046 16.1071 1.9911 16.8044 2.90609 17.0513C4.56462 17.5 11.2149 17.5 11.2149 17.5C11.2149 17.5 17.8652 17.5 19.5238 17.0513C20.4388 16.8044 21.1594 16.1071 21.404 15.1833C21.8484 13.5088 21.8484 10.0152 21.8484 10.0152C21.8484 10.0152 21.8484 6.52148 21.404 4.84699ZM9.0399 13.1871V6.84316L14.5983 10.0152L9.0399 13.1871Z" fill="black"/>
</svg>
